<?xml version="1.0" encoding="UTF-8"?>
<svg version="1.1" xmlns="http://www.w3.org/2000/svg" width="200" height="200">
<path d="M0 0 C66 0 132 0 200 0 C200 66 200 132 200 200 C134 200 68 200 0 200 C0 134 0 68 0 0 Z " fill="#0D38FC" transform="translate(0,0)"/>
<path d="M0 0 C2.00921101 0.01866051 4.01846764 0.03289076 6.02774048 0.0428772 C11.30615755 0.08098812 16.5818052 0.17914944 21.85913086 0.28991699 C27.24815401 0.39237376 32.63762655 0.43791963 38.02734375 0.48828125 C48.59496423 0.59540206 59.16053274 0.76598109 69.7265625 0.9765625 C69.7265625 5.5965625 69.7265625 10.2165625 69.7265625 14.9765625 C49.5965625 14.9765625 29.4665625 14.9765625 8.7265625 14.9765625 C8.7265625 30.8165625 8.7265625 46.6565625 8.7265625 62.9765625 C26.2165625 62.9765625 43.7065625 62.9765625 61.7265625 62.9765625 C61.7265625 67.9265625 61.7265625 72.8765625 61.7265625 77.9765625 C44.5665625 77.9765625 27.4065625 77.9765625 9.7265625 77.9765625 C9.7265625 93.8165625 9.7265625 109.6565625 9.7265625 125.9765625 C29.5265625 125.9765625 49.3265625 125.9765625 69.7265625 125.9765625 C69.7265625 130.9265625 69.7265625 135.8765625 69.7265625 140.9765625 C44.3165625 140.9765625 18.9065625 140.9765625 -7.2734375 140.9765625 C-7.2734375 128.7665625 -7.2734375 116.5565625 -7.2734375 103.9765625 C-15.03043015 103.61170892 -22.72901625 103.31834115 -30.48510742 103.1953125 C-33.11363033 103.13333198 -35.7415508 103.03208489 -38.36694336 102.88964844 C-52.90178092 101.64191984 -52.90178092 101.64191984 -65.71795654 107.10250854 C-69.89345412 112.34800404 -72.62269836 118.12896243 -75.13424683 124.31138611 C-76.73273476 128.0511045 -78.80913387 131.39005713 -81.0234375 134.7890625 C-81.63703125 135.78550781 -82.250625 136.78195313 -82.8828125 137.80859375 C-84.2734375 139.9765625 -84.2734375 139.9765625 -85.2734375 140.9765625 C-87.96998604 141.04975871 -90.64035208 141.06898787 -93.3359375 141.0390625 C-94.09455078 141.03455078 -94.85316406 141.03003906 -95.63476562 141.02539062 C-97.51435621 141.0135693 -99.39390649 140.99563328 -101.2734375 140.9765625 C-99.7028021 135.19248604 -96.78902088 130.492531 -93.7109375 125.4140625 C-92.53184123 123.44443578 -91.35349468 121.47436012 -90.17578125 119.50390625 C-89.54526855 118.45187012 -88.91475586 117.39983398 -88.26513672 116.31591797 C-85.09941572 111.00815481 -81.981308 105.67271491 -78.86184692 100.337677 C-73.00960137 90.33068989 -67.13160037 80.33921644 -61.2265625 70.36328125 C-56.72124637 62.74662056 -52.24563259 55.11269207 -47.7734375 47.4765625 C-42.55820046 38.57247439 -37.33510324 29.67321391 -32.0859375 20.7890625 C-31.58191406 19.93570313 -31.07789062 19.08234375 -30.55859375 18.203125 C-29.63137349 16.63532515 -28.6861765 15.07792556 -27.71800232 13.53507996 C-26.20252747 11.04014281 -26.20252747 11.04014281 -25.39710999 8.35762024 C-21.02858047 -2.70807004 -10.04615478 -0.27296915 0 0 Z " fill="#E8E9EB" transform="translate(116.2734375,29.0234375)"/>
<path d="M0 0 C1.65 0 3.3 0 5 0 C5 24.75 5 49.5 5 75 C-10.84 75 -26.68 75 -43 75 C-41.23699386 70.59248466 -39.17741693 66.72966642 -36.75 62.6875 C-35.84193363 61.15915961 -34.93441259 59.63049513 -34.02734375 58.1015625 C-33.53862793 57.27946289 -33.04991211 56.45736328 -32.54638672 55.61035156 C-29.77993749 50.94049442 -27.04662824 46.25133048 -24.3125 41.5625 C-23.73177734 40.56734375 -23.15105469 39.5721875 -22.55273438 38.546875 C-19.3012552 32.96887598 -16.06316916 27.38336223 -12.83984375 21.7890625 C-12.49669632 21.19357101 -12.15354889 20.59807953 -11.80000305 19.98454285 C-10.13090315 17.08715755 -8.46354539 14.18879309 -6.7980957 11.28930664 C-5.90030396 9.72877563 -5.90030396 9.72877563 -4.984375 8.13671875 C-4.45553711 7.21592529 -3.92669922 6.29513184 -3.38183594 5.34643555 C-2.31175189 3.52937233 -1.16972036 1.75458054 0 0 Z " fill="#0D38FA" transform="translate(104,44)"/>
<path d="M0 0 C17.82 0 35.64 0 54 0 C54 0.33 54 0.66 54 1 C36.84 1 19.68 1 2 1 C2 16.84 2 32.68 2 49 C21.8 49 41.6 49 62 49 C62 53.95 62 58.9 62 64 C36.59 64 11.18 64 -15 64 C-15 51.79 -15 39.58 -15 27 C-22.88663985 26.95917624 -30.76559645 26.9424267 -38.65112305 26.98779297 C-41.33349348 27.00037482 -44.0147347 26.99322455 -46.69702148 26.96923828 C-50.55301799 26.94211856 -54.40583594 26.96606664 -58.26171875 27 C-60.06040657 26.97087524 -60.06040657 26.97087524 -61.89543152 26.94116211 C-67.95237052 26.85996675 -67.95237052 26.85996675 -72.89834595 29.84765625 C-74.16920714 31.86136761 -75.16187181 33.77486479 -76 36 C-76.495 34.515 -76.495 34.515 -77 33 C-75.22557591 30.00183515 -73.46459429 27.46459429 -71 25 C-68.35115886 24.8115142 -65.80896818 24.7446685 -63.16015625 24.76953125 C-62.36980988 24.7695816 -61.5794635 24.76963196 -60.76516724 24.76968384 C-58.19745226 24.77329861 -55.63013305 24.79218376 -53.0625 24.8125 C-51.31746529 24.82000181 -49.57242944 24.82724503 -47.82739258 24.83422852 C-14.98599441 25.01400559 -14.98599441 25.01400559 -13 27 C-13 38.88 -13 50.76 -13 63 C11.42 63 35.84 63 61 63 C61 59.04 61 55.08 61 51 C58.34263794 51.0611499 58.34263794 51.0611499 55.6315918 51.12353516 C49.78039311 51.25576876 43.92903685 51.37851478 38.07750225 51.49477577 C34.52946885 51.56561774 30.98160106 51.64027487 27.43383789 51.72363281 C23.35581382 51.81928284 19.27761518 51.89837051 15.19921875 51.9765625 C13.92414963 52.00875885 12.64908051 52.0409552 11.33537292 52.0741272 C10.15437515 52.09429901 8.97337738 52.11447083 7.7565918 52.13525391 C6.71512497 52.15746002 5.67365814 52.17966614 4.60063171 52.20254517 C2 52 2 52 -1 50 C-1.32279968 47.86129761 -1.32279968 47.86129761 -1.2487793 45.18310547 C-1.22811401 44.16821045 -1.20744873 43.15331543 -1.18615723 42.10766602 C-1.14921753 41.03830811 -1.11227783 39.9689502 -1.07421875 38.8671875 C-1.05153931 37.8862915 -1.02885986 36.90539551 -1.00549316 35.89477539 C-0.91608082 32.2210758 -0.80017824 28.54805961 -0.6875 24.875 C-0.460625 16.66625 -0.23375 8.4575 0 0 Z " fill="#DAE4FD" transform="translate(124,106)"/>
<path d="M0 0 C17.82 0 35.64 0 54 0 C54 1.32 54 2.64 54 4 C55.32 4 56.64 4 58 4 C58 4.66 58 5.32 58 6 C57.01 6 56.02 6 55 6 C55 13.26 55 20.52 55 28 C53.68 28 52.36 28 51 28 C50.97311849 26.35425434 50.95365877 24.70838587 50.9375 23.0625 C50.92589844 22.14597656 50.91429687 21.22945312 50.90234375 20.28515625 C51 18 51 18 52 17 C52.19989763 15.00009484 52.19989763 15.00009484 52.1875 12.6875 C52.20167969 11.90761719 52.21585938 11.12773438 52.23046875 10.32421875 C51.97984413 7.7967332 51.26373772 6.18281969 50 4 C50.99 4 51.98 4 53 4 C53 3.01 53 2.02 53 1 C38.15 1.33 23.3 1.66 8 2 C7.67 3.65 7.34 5.3 7 7 C5.68 7.33 4.36 7.66 3 8 C2.67 19.22 2.34 30.44 2 42 C2.66 42 3.32 42 4 42 C4 42.99 4 43.98 4 45 C3.01 45 2.02 45 1 45 C1 45.66 1 46.32 1 47 C18.16 47 35.32 47 53 47 C53 47.33 53 47.66 53 48 C35.51 48 18.02 48 0 48 C0 32.16 0 16.32 0 0 Z " fill="#3753D7" transform="translate(125,44)"/>
<path d="M0 0 C29.7 0 59.4 0 90 0 C90 4.62 90 9.24 90 14 C70.2 14 50.4 14 30 14 C30 13.67 30 13.34 30 13 C49.47 13 68.94 13 89 13 C89 9.04 89 5.08 89 1 C59.96 1 30.92 1 1 1 C0.67 2.32 0.34 3.64 0 5 C-0.99 6.485 -0.99 6.485 -2 8 C-1.76787034 13.04001408 -1.76787034 13.04001408 1 17 C0.67 17.99 0.34 18.98 0 20 C1.98 19.34 3.96 18.68 6 18 C0 29 0 29 -6 40 C-6.495 38.515 -6.495 38.515 -7 37 C-6.52949219 36.27425781 -6.05898437 35.54851562 -5.57421875 34.80078125 C-3.56308723 31.22266388 -3.66395551 28.16773052 -3.8125 24.1875 C-3.82603516 23.49462891 -3.83957031 22.80175781 -3.85351562 22.08789062 C-3.88861155 20.39158735 -3.94241057 18.69568864 -4 17 C-5.98 17.33 -7.96 17.66 -10 18 C-9.08426462 16.31199445 -8.16735926 14.62462359 -7.25 12.9375 C-6.73953125 11.99777344 -6.2290625 11.05804688 -5.703125 10.08984375 C-3.83817603 6.70641568 -1.9167678 3.35434366 0 0 Z " fill="#DCE4FA" transform="translate(96,30)"/>
<path d="M0 0 C1.23590378 0.01131958 2.47180756 0.02263916 3.74516296 0.03430176 C7.01969777 0.07145637 10.29104768 0.14321581 13.56451416 0.23193359 C16.90924734 0.31401044 20.25411966 0.34967403 23.59960938 0.390625 C30.15617653 0.47199723 36.70487358 0.62851857 43.26171875 0.78125 C43.26171875 12.99125 43.26171875 25.20125 43.26171875 37.78125 C42.60171875 37.78125 41.94171875 37.78125 41.26171875 37.78125 C41.26171875 27.88125 41.26171875 17.98125 41.26171875 7.78125 C39.61171875 7.78125 37.96171875 7.78125 36.26171875 7.78125 C35.60171875 7.12125 34.94171875 6.46125 34.26171875 5.78125 C31.17824049 5.61443891 31.17824049 5.61443891 28.26171875 5.78125 C28.26171875 4.79125 28.26171875 3.80125 28.26171875 2.78125 C23.64171875 2.78125 19.02171875 2.78125 14.26171875 2.78125 C14.26171875 3.77125 14.26171875 4.76125 14.26171875 5.78125 C11.62171875 5.78125 8.98171875 5.78125 6.26171875 5.78125 C6.26171875 5.12125 6.26171875 4.46125 6.26171875 3.78125 C-0.00828125 3.45125 -6.27828125 3.12125 -12.73828125 2.78125 C-12.73828125 4.76125 -12.73828125 6.74125 -12.73828125 8.78125 C-14.05828125 9.11125 -15.37828125 9.44125 -16.73828125 9.78125 C-16.73828125 10.77125 -16.73828125 11.76125 -16.73828125 12.78125 C-17.72828125 13.11125 -18.71828125 13.44125 -19.73828125 13.78125 C-19.15474521 12.0836906 -18.45777308 10.42580275 -17.73828125 8.78125 C-17.48283035 8.11613403 -17.22737946 7.45101807 -16.96418762 6.76574707 C-13.26760018 -0.99123861 -7.870355 -0.27100522 0 0 Z " fill="#1031C5" transform="translate(65.73828125,132.21875)"/>
<path d="M0 0 C17.82 0 35.64 0 54 0 C54 0.33 54 0.66 54 1 C36.84 1 19.68 1 2 1 C2 16.84 2 32.68 2 49 C21.8 49 41.6 49 62 49 C62 49.33 62 49.66 62 50 C61.30731018 50.01030746 60.61462036 50.02061493 59.90093994 50.03123474 C52.69851284 50.13932355 45.49621023 50.25391985 38.29394531 50.37231445 C35.60517236 50.41617963 32.91637835 50.4577294 30.22753906 50.49731445 C26.36515039 50.5550365 22.50289944 50.61872582 18.640625 50.68359375 C17.4363385 50.70030624 16.232052 50.71701874 14.99127197 50.73423767 C13.87041199 50.75418289 12.749552 50.77412811 11.59472656 50.79467773 C10.60877502 50.81022202 9.62282349 50.8257663 8.60699463 50.84178162 C6.04248643 50.89959596 6.04248643 50.89959596 3.83782959 51.63783264 C2 52 2 52 -1 50 C-1.32279968 47.86129761 -1.32279968 47.86129761 -1.2487793 45.18310547 C-1.22811401 44.16821045 -1.20744873 43.15331543 -1.18615723 42.10766602 C-1.14921753 41.03830811 -1.11227783 39.9689502 -1.07421875 38.8671875 C-1.05153931 37.8862915 -1.02885986 36.90539551 -1.00549316 35.89477539 C-0.91608082 32.2210758 -0.80017824 28.54805961 -0.6875 24.875 C-0.460625 16.66625 -0.23375 8.4575 0 0 Z " fill="#9FB3FA" transform="translate(124,106)"/>
<path d="M0 0 C1.26684631 -0.0025882 2.53369263 -0.00517639 3.83892822 -0.00784302 C7.4863973 -0.0137111 11.13378019 -0.01210677 14.78125 -0.0078125 C15.88850433 -0.00979141 16.99575867 -0.01177032 18.13656616 -0.0138092 C19.16464386 -0.01070236 20.19272156 -0.00759552 21.25195312 -0.00439453 C22.5963446 -0.00320114 22.5963446 -0.00320114 23.96789551 -0.00198364 C26.56561465 0.12829054 28.96631343 0.5511719 31.5 1.125 C31.5 1.785 31.5 2.445 31.5 3.125 C1.8 3.125 -27.9 3.125 -58.5 3.125 C-59.16 4.775 -59.82 6.425 -60.5 8.125 C-61.34893089 9.74311373 -62.22352632 11.34805956 -63.125 12.9375 C-63.57101563 13.72769531 -64.01703125 14.51789062 -64.4765625 15.33203125 C-64.81429687 15.92371094 -65.15203125 16.51539062 -65.5 17.125 C-65.83 17.125 -66.16 17.125 -66.5 17.125 C-66.5 15.145 -66.5 13.165 -66.5 11.125 C-65.51 10.795 -64.52 10.465 -63.5 10.125 C-63.17 8.475 -62.84 6.825 -62.5 5.125 C-61.84 5.125 -61.18 5.125 -60.5 5.125 C-60.5 4.135 -60.5 3.145 -60.5 2.125 C-56.56777809 0.15888904 -51.70163223 0.71008164 -47.375 0.5625 C-46.16263672 0.5207666 -44.95027344 0.4790332 -43.70117188 0.43603516 C-29.13867701 -0.00990537 -14.5679025 0.01400738 0 0 Z " fill="#3655E1" transform="translate(154.5,26.875)"/>
<path d="M0 0 C0.99 0 1.98 0 3 0 C3 1.98 3 3.96 3 6 C2.34 6 1.68 6 1 6 C0.87882812 6.67546875 0.75765625 7.3509375 0.6328125 8.046875 C0.46523438 8.93890625 0.29765625 9.8309375 0.125 10.75 C-0.03742187 11.63171875 -0.19984375 12.5134375 -0.3671875 13.421875 C-1 16 -1 16 -3 20 C-6.96 20 -10.92 20 -15 20 C-16.52491998 16.95016004 -16.23562548 14.3576631 -16 11 C-14.625 9.4375 -14.625 9.4375 -13 8 C-12.32136945 6.0040278 -11.65358081 4.00431449 -11 2 C-10.34 1.67 -9.68 1.34 -9 1 C-9 4.3 -9 7.6 -9 11 C-7.68 11 -6.36 11 -5 11 C-1.76340806 5.798474 -1.76340806 5.798474 0 0 Z " fill="#0E37F2" transform="translate(58,180)"/>
<path d="M0 0 C0.66 0 1.32 0 2 0 C2.33 9.9 2.66 19.8 3 30 C-12.84 30 -28.68 30 -45 30 C-43.31482096 25.7870524 -41.56523798 22.67684111 -39 19 C-37.68 20.65 -36.36 22.3 -35 24 C-36.32 24.99 -37.64 25.98 -39 27 C-19.2 27.495 -19.2 27.495 1 28 C0.67 18.76 0.34 9.52 0 0 Z " fill="#3754DD" transform="translate(106,89)"/>
<path d="M0 0 C25.41 0 50.82 0 77 0 C77 0.66 77 1.32 77 2 C39.38 2.495 39.38 2.495 1 3 C0.67 2.01 0.34 1.02 0 0 Z " fill="#254AE8" transform="translate(109,170)"/>
<path d="M0 0 C0.66 0 1.32 0 2 0 C2 1.65 2 3.3 2 5 C3.03060547 4.96519531 3.03060547 4.96519531 4.08203125 4.9296875 C5.43361328 4.90261719 5.43361328 4.90261719 6.8125 4.875 C7.70582031 4.85179687 8.59914063 4.82859375 9.51953125 4.8046875 C12 5 12 5 15 7 C18.12521833 7.16699232 18.12521833 7.16699232 21 7 C21 7.99 21 8.98 21 10 C18.36 9.67 15.72 9.34 13 9 C13 9.66 13 10.32 13 11 C9.7 11 6.4 11 3 11 C3 9.68 3 8.36 3 7 C2.01 7 1.02 7 0 7 C0.061875 8.11375 0.061875 8.11375 0.125 9.25 C-0.00398134 12.08758952 -0.57051222 13.58773938 -2 16 C-2.99 16 -3.98 16 -5 16 C-4.49228528 10.03435204 -2.61407872 5.36190101 0 0 Z " fill="#072CD2" transform="translate(89,5)"/>
<path d="M0 0 C1.65 0.33 3.3 0.66 5 1 C5 2.98 5 4.96 5 7 C5.99 4.69 6.98 2.38 8 0 C8.66 0.66 9.32 1.32 10 2 C9.01 3.65 8.02 5.3 7 7 C7.99 7 8.98 7 10 7 C10 8.65 10 10.3 10 12 C6.22969185 12.83240569 2.53576586 13.26647955 -1.3125 13.5625 C-2.91544922 13.68818359 -2.91544922 13.68818359 -4.55078125 13.81640625 C-5.35902344 13.87699219 -6.16726563 13.93757813 -7 14 C-7 12.68 -7 11.36 -7 10 C-5.35 10 -3.7 10 -2 10 C-1.34 6.7 -0.68 3.4 0 0 Z " fill="#092CD3" transform="translate(21,6)"/>
<path d="M0 0 C1.98 0 3.96 0 6 0 C6 0.66 6 1.32 6 2 C4.68 2 3.36 2 2 2 C2.99 3.32 3.98 4.64 5 6 C6.32 5.67 7.64 5.34 9 5 C9 6.65 9 8.3 9 10 C13.455 10.99 13.455 10.99 18 12 C18 12.99 18 13.98 18 15 C15.36 15 12.72 15 10 15 C10 14.34 10 13.68 10 13 C6.7 12.67 3.4 12.34 0 12 C-0.79953138 8.71303767 -1.09658936 7.28976808 0 4 C0 2.68 0 1.36 0 0 Z " fill="#0930DB" transform="translate(52,42)"/>
<path d="M0 0 C1.23590378 0.01131958 2.47180756 0.02263916 3.74516296 0.03430176 C7.01969777 0.07145637 10.29104768 0.14321581 13.56451416 0.23193359 C16.90924734 0.31401044 20.25411966 0.34967403 23.59960938 0.390625 C30.15488777 0.47879388 36.70804294 0.61263228 43.26171875 0.78125 C43.26171875 1.11125 43.26171875 1.44125 43.26171875 1.78125 C31.71171875 1.78125 20.16171875 1.78125 8.26171875 1.78125 C8.26171875 3.10125 8.26171875 4.42125 8.26171875 5.78125 C7.60171875 5.78125 6.94171875 5.78125 6.26171875 5.78125 C6.26171875 5.12125 6.26171875 4.46125 6.26171875 3.78125 C-0.00828125 3.45125 -6.27828125 3.12125 -12.73828125 2.78125 C-12.73828125 4.76125 -12.73828125 6.74125 -12.73828125 8.78125 C-14.05828125 9.11125 -15.37828125 9.44125 -16.73828125 9.78125 C-16.73828125 10.77125 -16.73828125 11.76125 -16.73828125 12.78125 C-17.72828125 13.11125 -18.71828125 13.44125 -19.73828125 13.78125 C-19.15474521 12.0836906 -18.45777308 10.42580275 -17.73828125 8.78125 C-17.48283035 8.11613403 -17.22737946 7.45101807 -16.96418762 6.76574707 C-13.26760018 -0.99123861 -7.870355 -0.27100522 0 0 Z " fill="#3A56DB" transform="translate(65.73828125,132.21875)"/>
<path d="M0 0 C0.66 0.33 1.32 0.66 2 1 C0.68 3.31 -0.64 5.62 -2 8 C14.17 8 30.34 8 47 8 C46.67 8.66 46.34 9.32 46 10 C39.34310718 10.02529589 32.6862267 10.04284396 26.02929688 10.05493164 C23.76334164 10.05996926 21.49738967 10.06679952 19.23144531 10.07543945 C15.97980953 10.08752996 12.72821661 10.09323392 9.4765625 10.09765625 C7.94994492 10.10539818 7.94994492 10.10539818 6.39248657 10.11329651 C4.98125015 10.11340981 4.98125015 10.11340981 3.54150391 10.11352539 C2.29574081 10.11685631 2.29574081 10.11685631 1.02481079 10.12025452 C-1 10 -1 10 -3 9 C-3.36923077 3.46153846 -3.36923077 3.46153846 -1.5 1.125 C-1.005 0.75375 -0.51 0.3825 0 0 Z " fill="#E2E9FA" transform="translate(63,111)"/>
<path d="M0 0 C1.11540757 4.42413758 2 8.40607865 2 13 C1.01 13 0.02 13 -1 13 C-1 13.99 -1 14.98 -1 16 C-4 17 -4 17 -7 16 C-7 17.32 -7 18.64 -7 20 C-7.99 20.66 -8.98 21.32 -10 22 C-11.06246527 23.96752828 -12.07137808 25.96587579 -13 28 C-13.66 28 -14.32 28 -15 28 C-13.60582632 24.29102741 -11.92181521 20.92161688 -9.9609375 17.48046875 C-9.09082031 15.9480957 -9.09082031 15.9480957 -8.203125 14.38476562 C-7.59984375 13.32966797 -6.9965625 12.27457031 -6.375 11.1875 C-5.76398437 10.11306641 -5.15296875 9.03863281 -4.5234375 7.93164062 C-3.01844115 5.28613924 -1.51054209 2.6423375 0 0 Z " fill="#E8E8EB" transform="translate(38,128)"/>
<path d="M0 0 C1.65 0 3.3 0 5 0 C5 24.42 5 48.84 5 74 C4.67 74 4.34 74 4 74 C4 64.43 4 54.86 4 45 C3.01 45 2.02 45 1 45 C1.33 42.03 1.66 39.06 2 36 C2.66 36 3.32 36 4 36 C3.90653687 31.76376458 3.80046087 27.52809149 3.68261719 23.29248047 C3.64430326 21.8511626 3.60945457 20.40974832 3.578125 18.96826172 C3.53252554 16.89776114 3.47452556 14.82792567 3.4140625 12.7578125 C3.3826416 11.5114502 3.3512207 10.26508789 3.31884766 8.98095703 C3.30317691 5.88458224 3.30317691 5.88458224 1 4 C1.99 4 2.98 4 4 4 C4 3.01 4 2.02 4 1 C2.68 0.67 1.36 0.34 0 0 Z " fill="#1E38BC" transform="translate(104,44)"/>
<path d="M0 0 C0.66 0 1.32 0 2 0 C2 1.32 2 2.64 2 4 C3.32 4 4.64 4 6 4 C6 4.66 6 5.32 6 6 C5.01 6 4.02 6 3 6 C3 13.26 3 20.52 3 28 C1.68 28 0.36 28 -1 28 C-1.02688151 26.35425434 -1.04634123 24.70838587 -1.0625 23.0625 C-1.07410156 22.14597656 -1.08570313 21.22945312 -1.09765625 20.28515625 C-1 18 -1 18 0 17 C0.19989763 15.00009484 0.19989763 15.00009484 0.1875 12.6875 C0.20167969 11.90761719 0.21585938 11.12773438 0.23046875 10.32421875 C-0.02015587 7.7967332 -0.73626228 6.18281969 -2 4 C-1.01 4 -0.02 4 1 4 C0.67 2.68 0.34 1.36 0 0 Z " fill="#0A30E1" transform="translate(177,44)"/>
<path d="M0 0 C0.66 0.33 1.32 0.66 2 1 C-2.95 9.25 -7.9 17.5 -13 26 C-13.33 24.68 -13.66 23.36 -14 22 C-14.33 21.01 -14.66 20.02 -15 19 C-15.66 18.67 -16.32 18.34 -17 18 C-15.6875 16 -15.6875 16 -14 14 C-13.01 14 -12.02 14 -11 14 C-10.67 14.99 -10.34 15.98 -10 17 C-9.34 15.35 -8.68 13.7 -8 12 C-7.34 12 -6.68 12 -6 12 C-5.7834375 11.1028125 -5.7834375 11.1028125 -5.5625 10.1875 C-5.1127561 8.43849596 -4.57107659 6.71322977 -4 5 C-3.34 5 -2.68 5 -2 5 C-1.855625 4.360625 -1.71125 3.72125 -1.5625 3.0625 C-1 1 -1 1 0 0 Z " fill="#E1E5F3" transform="translate(45,143)"/>
<path d="M0 0 C2.31 0.33 4.62 0.66 7 1 C7 1.33 7 1.66 7 2 C5.35 2 3.7 2 2 2 C2 2.66 2 3.32 2 4 C3.65 4 5.3 4 7 4 C8.06888524 7.47665095 8.11475767 10.67137478 8.09765625 14.296875 C8.09443359 15.50214844 8.09121094 16.70742187 8.08789062 17.94921875 C8.07951172 19.20347656 8.07113281 20.45773438 8.0625 21.75 C8.05798828 23.01972656 8.05347656 24.28945312 8.04882812 25.59765625 C8.03704556 28.73181836 8.02059416 31.86588541 8 35 C7.34 35 6.68 35 6 35 C6 25.1 6 15.2 6 5 C4.35 5 2.7 5 1 5 C0.67 3.35 0.34 1.7 0 0 Z " fill="#1739D9" transform="translate(101,135)"/>
<path d="M0 0 C2.475 0.99 2.475 0.99 5 2 C5 1.34 5 0.68 5 0 C5.99 0 6.98 0 8 0 C7.814375 1.0725 7.62875 2.145 7.4375 3.25 C7.0695432 6.40391546 6.95534657 8.09818492 8 11 C5.36 11 2.72 11 0 11 C0.33 9.02 0.66 7.04 1 5 C0.01 5 -0.98 5 -2 5 C-1.34 3.35 -0.68 1.7 0 0 Z " fill="#0C32E4" transform="translate(30,8)"/>
<path d="M0 0 C1 2 1 2 0.4375 5.375 C0.00581587 8.95181134 0.03465802 10.1097912 2 13 C4.31 13 6.62 13 9 13 C9 13.33 9 13.66 9 14 C3.72 14 -1.56 14 -7 14 C-5.58022512 9.74067537 -4.6974968 7.16986354 -2.375 3.625 C-1.70597656 2.59246094 -1.70597656 2.59246094 -1.0234375 1.5390625 C-0.68570312 1.03117188 -0.34796875 0.52328125 0 0 Z " fill="#D8E2F6" transform="translate(22,156)"/>
<path d="M0 0 C1.32 0 2.64 0 4 0 C3.814375 0.639375 3.62875 1.27875 3.4375 1.9375 C3.293125 2.618125 3.14875 3.29875 3 4 C3.33 4.33 3.66 4.66 4 5 C4.14115161 7.67058851 4.04247107 10.32432238 4 13 C3.67 13 3.34 13 3 13 C2.67 11.02 2.34 9.04 2 7 C1.01 7 0.02 7 -1 7 C-1.33 8.65 -1.66 10.3 -2 12 C-2.639375 12.103125 -3.27875 12.20625 -3.9375 12.3125 C-4.9584375 12.6528125 -4.9584375 12.6528125 -6 13 C-6.33 13.99 -6.66 14.98 -7 16 C-7.66 16 -8.32 16 -9 16 C-7.63498381 12.33357971 -5.97203048 9.08922939 -3.9375 5.75 C-3.41027344 4.87859375 -2.88304688 4.0071875 -2.33984375 3.109375 C-1 1 -1 1 0 0 Z " fill="#1138EE" transform="translate(104,45)"/>
<path d="M0 0 C0.495 0.99 0.495 0.99 1 2 C0.16339844 1.95697754 -0.67320313 1.91395508 -1.53515625 1.86962891 C-16.43735425 0.57238083 -16.43735425 0.57238083 -30.15869141 4.42138672 C-33.3972463 8.10727275 -34.862293 12.28490414 -36 17 C-36.33 17 -36.66 17 -37 17 C-37 15.02 -37 13.04 -37 11 C-36.01 10.67 -35.02 10.34 -34 10 C-33.67 8.35 -33.34 6.7 -33 5 C-32.34 5 -31.68 5 -31 5 C-31 4.01 -31 3.02 -31 2 C-28.15464275 0.57732138 -25.63781448 0.78028131 -22.4609375 0.68359375 C-20.50800781 0.62075195 -20.50800781 0.62075195 -18.515625 0.55664062 C-17.13541955 0.51682701 -15.75521117 0.47711478 -14.375 0.4375 C-12.98696585 0.39430593 -11.59894472 0.35069135 -10.2109375 0.30664062 C-6.80739744 0.20028 -3.40378222 0.09825286 0 0 Z " fill="#163DE6" transform="translate(125,27)"/>
<path d="M0 0 C0.99 0 1.98 0 3 0 C3 1.98 3 3.96 3 6 C2.34 6 1.68 6 1 6 C0.86722656 6.69867188 0.73445313 7.39734375 0.59765625 8.1171875 C0.42105469 9.02726563 0.24445312 9.93734375 0.0625 10.875 C-0.11152344 11.77992188 -0.28554688 12.68484375 -0.46484375 13.6171875 C-1 16 -1 16 -2 18 C-2.99 18 -3.98 18 -5 18 C-4.38388165 13.68068613 -3.35761422 9.74791225 -1.9375 5.625 C-1.57527344 4.56539062 -1.21304688 3.50578125 -0.83984375 2.4140625 C-0.56269531 1.61742187 -0.28554688 0.82078125 0 0 Z " fill="#082CD7" transform="translate(58,180)"/>
<path d="M0 0 C0.66 0.33 1.32 0.66 2 1 C-2.455 8.425 -2.455 8.425 -7 16 C-7.66 15.34 -8.32 14.68 -9 14 C-8.625 11.875 -8.625 11.875 -8 10 C-8 10.66 -8 11.32 -8 12 C-7.34 12 -6.68 12 -6 12 C-6.33 8.7 -6.66 5.4 -7 2 C-4.69 2 -2.38 2 0 2 C0 1.34 0 0.68 0 0 Z " fill="#1638D3" transform="translate(59,90)"/>
<path d="M0 0 C2.97 0 5.94 0 9 0 C9 1.98 9 3.96 9 6 C5.7 6 2.4 6 -1 6 C-0.67 4.02 -0.34 2.04 0 0 Z " fill="#062BCF" transform="translate(11,28)"/>
<path d="M0 0 C1.43352212 0.00015908 2.86704998 0.00585132 4.30053711 0.01586914 C5.43041298 0.01799156 5.43041298 0.01799156 6.58311462 0.02015686 C8.99807646 0.02577163 11.41294687 0.03832656 13.82788086 0.05102539 C15.46134307 0.05603849 17.09480672 0.06060173 18.72827148 0.06469727 C22.74067671 0.07574585 26.75301326 0.09302033 30.76538086 0.11352539 C30.76538086 0.44352539 30.76538086 0.77352539 30.76538086 1.11352539 C29.79189697 1.10192383 28.81841309 1.09032227 27.81542969 1.07836914 C24.18995249 1.04574061 20.5663145 1.06573443 16.94091797 1.10131836 C15.37452041 1.10941009 13.8079819 1.10338773 12.24169922 1.08276367 C3.35020053 0.59632012 3.35020053 0.59632012 -4.40112305 3.96118164 C-5.67403802 5.9978456 -6.56056915 7.81409502 -7.23461914 10.11352539 C-7.56461914 9.12352539 -7.89461914 8.13352539 -8.23461914 7.11352539 C-4.05182808 0.14220696 -4.05182808 0.14220696 0 0 Z " fill="#DCE8FF" transform="translate(55.234619140625,131.886474609375)"/>
<path d="M0 0 C-2.64 4.62 -5.28 9.24 -8 14 C-8.66 12.68 -9.32 11.36 -10 10 C-10.66 9.01 -11.32 8.02 -12 7 C-11 6 -11 6 -8.4375 5.9375 C-7.2309375 5.9684375 -7.2309375 5.9684375 -6 6 C-6 4.02 -6 2.04 -6 0 C-2.25 -1.125 -2.25 -1.125 0 0 Z " fill="#DDE1F3" transform="translate(84,80)"/>
<path d="M0 0 C2.5 1.1875 2.5 1.1875 5 3 C5.3125 5.6875 5.3125 5.6875 5 8 C3.741875 8.103125 2.48375 8.20625 1.1875 8.3125 C-1.60499657 8.64858808 -2.74433121 8.80025876 -5 10.5625 C-5.33 11.036875 -5.66 11.51125 -6 12 C-4.68139111 7.38486888 -2.78644563 3.90102388 0 0 Z " fill="#1637DB" transform="translate(85,77)"/>
<path d="M0 0 C1.98 0 3.96 0 6 0 C6 0.66 6 1.32 6 2 C4.68 2 3.36 2 2 2 C2.99 3.32 3.98 4.64 5 6 C6.32 5.67 7.64 5.34 9 5 C9 5.66 9 6.32 9 7 C8.34 7 7.68 7 7 7 C7 7.99 7 8.98 7 10 C6.01 9.67 5.02 9.34 4 9 C4 8.34 4 7.68 4 7 C3.01 7 2.02 7 1 7 C1.33 8.32 1.66 9.64 2 11 C1.01 10.67 0.02 10.34 -1 10 C-0.67 6.7 -0.34 3.4 0 0 Z " fill="#011FB9" transform="translate(52,42)"/>
<path d="M0 0 C0.66 0.66 1.32 1.32 2 2 C0.515 4.475 0.515 4.475 -1 7 C-0.01 7 0.98 7 2 7 C2 8.65 2 10.3 2 12 C0.35 12.33 -1.3 12.66 -3 13 C-3.93045933 10.44855176 -4.08564091 9.25993522 -3.22265625 6.640625 C-2.83980469 5.85171875 -2.45695312 5.0628125 -2.0625 4.25 C-1.68222656 3.45078125 -1.30195313 2.6515625 -0.91015625 1.828125 C-0.60980469 1.22484375 -0.30945313 0.6215625 0 0 Z " fill="#0326CB" transform="translate(29,6)"/>
<path d="M0 0 C0.99 0 1.98 0 3 0 C3 0.99 3 1.98 3 3 C3.99 3 4.98 3 6 3 C6 3.66 6 4.32 6 5 C5.01 5.495 5.01 5.495 4 6 C3.67 6.99 3.34 7.98 3 9 C2.01 9 1.02 9 0 9 C0 8.01 0 7.02 0 6 C-0.99 6 -1.98 6 -3 6 C-3 5.34 -3 4.68 -3 4 C-2.01 4 -1.02 4 0 4 C0 2.68 0 1.36 0 0 Z " fill="#0427C5" transform="translate(14,44)"/>
<path d="M0 0 C1 2 1 2 0.25 5.0625 C-0.1625 6.031875 -0.575 7.00125 -1 8 C-1.99 8.33 -2.98 8.66 -4 9 C-4.91039125 11.28697319 -5.45841999 13.58315365 -6.05859375 15.96875 C-7 18 -7 18 -9.09765625 18.78125 C-9.72542969 18.8534375 -10.35320313 18.925625 -11 19 C-9.72984669 16.77044347 -8.45889952 14.54134574 -7.1875 12.3125 C-6.83107422 11.68666016 -6.47464844 11.06082031 -6.10742188 10.41601562 C-4.1116542 6.91884475 -2.08731295 3.44373714 0 0 Z " fill="#2745DB" transform="translate(42,151)"/>
<path d="M0 0 C0.66 0.33 1.32 0.66 2 1 C-1.63 7.27 -5.26 13.54 -9 20 C-10.2077558 16.37673261 -9.54311128 15.35853631 -8 12 C-7.34 12 -6.68 12 -6 12 C-5.7834375 11.1028125 -5.7834375 11.1028125 -5.5625 10.1875 C-5.1127561 8.43849596 -4.57107659 6.71322977 -4 5 C-3.34 5 -2.68 5 -2 5 C-1.855625 4.360625 -1.71125 3.72125 -1.5625 3.0625 C-1 1 -1 1 0 0 Z " fill="#CBD9FD" transform="translate(45,143)"/>
<path d="M0 0 C0.66 0 1.32 0 2 0 C2 1.32 2 2.64 2 4 C1.34 4 0.68 4 0 4 C0 5.32 0 6.64 0 8 C-0.99 8.66 -1.98 9.32 -3 10 C-4.06246527 11.96752828 -5.07137808 13.96587579 -6 16 C-6.66 16 -7.32 16 -8 16 C-6.57250019 12.20950293 -4.83763458 8.72877544 -2.875 5.1875 C-2.33617187 4.21167969 -1.79734375 3.23585937 -1.2421875 2.23046875 C-0.83226562 1.49441406 -0.42234375 0.75835937 0 0 Z " fill="#D4DFFA" transform="translate(31,140)"/>
<path d="M0 0 C0.66 0 1.32 0 2 0 C2 0.99 2 1.98 2 3 C2.99 3.33 3.98 3.66 5 4 C4.34 5.65 3.68 7.3 3 9 C1.68 8.67 0.36 8.34 -1 8 C-1 7.01 -1 6.02 -1 5 C-1.66 4.67 -2.32 4.34 -3 4 C-2.01 4 -1.02 4 0 4 C0 2.68 0 1.36 0 0 Z " fill="#0931D6" transform="translate(178,132)"/>
<path d="M0 0 C1.39607277 3.74360914 0.57200275 6.02321534 -0.8125 9.6875 C-1.16957031 10.66074219 -1.52664062 11.63398438 -1.89453125 12.63671875 C-3 15 -3 15 -5 16 C-2.09550562 2.09550562 -2.09550562 2.09550562 0 0 Z " fill="#0122C0" transform="translate(48,181)"/>
<path d="M0 0 C1.32 1.65 2.64 3.3 4 5 C-0.75 9 -0.75 9 -3 9 C-3.26218749 5.85375007 -3.24754367 4.38162983 -1.5 1.6875 C-1.005 1.130625 -0.51 0.57375 0 0 Z " fill="#1940ED" transform="translate(67,108)"/>
<path d="M0 0 C0.99 0.33 1.98 0.66 3 1 C2.34 2.65 1.68 4.3 1 6 C-1.31 6.33 -3.62 6.66 -6 7 C-6 5.68 -6 4.36 -6 3 C-4.35 3 -2.7 3 -1 3 C-0.67 2.01 -0.34 1.02 0 0 Z " fill="#0B31DF" transform="translate(20,13)"/>
<path d="M0 0 C0.66 0.33 1.32 0.66 2 1 C0.02 4.63 -1.96 8.26 -4 12 C-5.06546953 8.8035914 -5.07427838 6.34252724 -5 3 C-4.360625 2.87625 -3.72125 2.7525 -3.0625 2.625 C-2.0415625 2.315625 -2.0415625 2.315625 -1 2 C-0.67 1.34 -0.34 0.68 0 0 Z " fill="#D6DFF5" transform="translate(73,94)"/>
<path d="M0 0 C1.98 0 3.96 0 6 0 C5.67 1.65 5.34 3.3 5 5 C3.68 5.33 2.36 5.66 1 6 C0.67 4.02 0.34 2.04 0 0 Z " fill="#0A30E4" transform="translate(114,8)"/>
<path d="M0 0 C1.1171875 3.71875 1.1171875 3.71875 0.0625 6.25 C-0.4634375 7.11625 -0.4634375 7.11625 -1 8 C-1.66 8 -2.32 8 -3 8 C-3.33 9.65 -3.66 11.3 -4 13 C-4.99 13.33 -5.98 13.66 -7 14 C-5.23570801 9.02790438 -2.6060834 4.56561939 0 0 Z " fill="#CED7FA" transform="translate(74,67)"/>
<path d="M0 0 C0.66 0 1.32 0 2 0 C2 1.32 2 2.64 2 4 C3.32 4 4.64 4 6 4 C6 4.66 6 5.32 6 6 C5.01 6 4.02 6 3 6 C2.67 6.99 2.34 7.98 2 9 C0.68 7.68 -0.64 6.36 -2 5 C-1.01 4.67 -0.02 4.34 1 4 C0.67 2.68 0.34 1.36 0 0 Z " fill="#0422BB" transform="translate(177,44)"/>
<path d="M0 0 C0.66 0.33 1.32 0.66 2 1 C0.68 3.31 -0.64 5.62 -2 8 C1.3 8 4.6 8 8 8 C8 8.33 8 8.66 8 9 C4.37 9 0.74 9 -3 9 C-3.36923077 3.46153846 -3.36923077 3.46153846 -1.5 1.125 C-1.005 0.75375 -0.51 0.3825 0 0 Z " fill="#DAE7FC" transform="translate(63,111)"/>
<path d="M0 0 C0.99 0 1.98 0 3 0 C3 2.97 3 5.94 3 9 C1.68 9 0.36 9 -1 9 C-0.67 6.03 -0.34 3.06 0 0 Z " fill="#0C2AB4" transform="translate(106,80)"/>
<path d="M0 0 C0.66 0.33 1.32 0.66 2 1 C0.66654496 4.59007126 -0.8943231 7.79570907 -3 11 C-3.33 11 -3.66 11 -4 11 C-4 8.69 -4 6.38 -4 4 C-2.68 4 -1.36 4 0 4 C0 2.68 0 1.36 0 0 Z " fill="#1E40E5" transform="translate(65,78)"/>
<path d="M0 0 C1.32 0.66 2.64 1.32 4 2 C3.67 2.99 3.34 3.98 3 5 C2.01 5 1.02 5 0 5 C-0.33 5.66 -0.66 6.32 -1 7 C-2.5 5.625 -2.5 5.625 -4 4 C-4 3.34 -4 2.68 -4 2 C-2.68 2 -1.36 2 0 2 C0 1.34 0 0.68 0 0 Z " fill="#1136EA" transform="translate(58,42)"/>
<path d="M0 0 C1.32 0 2.64 0 4 0 C3.67 1.65 3.34 3.3 3 5 C1.02 5.33 -0.96 5.66 -3 6 C-1.125 1.125 -1.125 1.125 0 0 Z " fill="#133BDD" transform="translate(104,45)"/>
<path d="M0 0 C0.99 0 1.98 0 3 0 C3.33 0.66 3.66 1.32 4 2 C6.01669827 3.13350534 6.01669827 3.13350534 8 4 C4.92677456 4.91058531 2.19902639 5.08886184 -1 5 C-0.67 3.35 -0.34 1.7 0 0 Z " fill="#0A2AC5" transform="translate(53,49)"/>
<path d="M0 0 C2.31 0 4.62 0 7 0 C6.01 0.495 6.01 0.495 5 1 C4.34786708 3.02463255 4.34786708 3.02463255 4 5 C2.68 4.67 1.36 4.34 0 4 C0 2.68 0 1.36 0 0 Z " fill="#1437E2" transform="translate(179,44)"/>
<path d="M0 0 C1.06126775 4.24507101 1.08878929 5.31975221 -1 9 C-2.32 9.33 -3.64 9.66 -5 10 C-3.35 6.7 -1.7 3.4 0 0 Z " fill="#C8D7F8" transform="translate(38,128)"/>
<path d="M0 0 C1.06544301 3.19632902 1.19353531 3.97025652 0 7 C-2.0625 9.25 -2.0625 9.25 -4 11 C-4.66 10.67 -5.32 10.34 -6 10 C-4.02 6.7 -2.04 3.4 0 0 Z " fill="#CAD5FB" transform="translate(56,98)"/>
<path d="M0 0 C2.31 0.33 4.62 0.66 7 1 C2.25 5 2.25 5 0 5 C0 3.35 0 1.7 0 0 Z " fill="#0A2EDA" transform="translate(4,16)"/>
<path d="M0 0 C2.475 0.495 2.475 0.495 5 1 C5 2.65 5 4.3 5 6 C4.34 6 3.68 6 3 6 C3 4.68 3 3.36 3 2 C2.34 2 1.68 2 1 2 C0.67 3.32 0.34 4.64 0 6 C0 4.02 0 2.04 0 0 Z " fill="#0124BE" transform="translate(21,6)"/>
<path d="M0 0 C-1.32 2.31 -2.64 4.62 -4 7 C-4.33 7 -4.66 7 -5 7 C-5.33 4.69 -5.66 2.38 -6 0 C-2.25 -1.125 -2.25 -1.125 0 0 Z " fill="#D3DDFA" transform="translate(84,80)"/>
<path d="M0 0 C0.33 0 0.66 0 1 0 C1.1875 2.375 1.1875 2.375 1 5 C0.01 5.66 -0.98 6.32 -2 7 C-2.33 7.99 -2.66 8.98 -3 10 C-3.66 10 -4.32 10 -5 10 C-3.66654496 6.40992874 -2.1056769 3.20429093 0 0 Z " fill="#2C4BDC" transform="translate(100,51)"/>
<path d="M0 0 C0.66 0 1.32 0 2 0 C0.7508258 3.45925163 -0.67527795 6.14693203 -3 9 C-3 7.02 -3 5.04 -3 3 C-2.01 2.67 -1.02 2.34 0 2 C0 1.34 0 0.68 0 0 Z " fill="#2145E1" transform="translate(91,35)"/>
<path d="M0 0 C1.98 0 3.96 0 6 0 C6 0.99 6 1.98 6 3 C4.02 3 2.04 3 0 3 C0 2.01 0 1.02 0 0 Z " fill="#0328CE" transform="translate(74,135)"/>
<path d="M0 0 C1.98 0 3.96 0 6 0 C6 0.99 6 1.98 6 3 C4.02 3 2.04 3 0 3 C0 2.01 0 1.02 0 0 Z " fill="#0328CB" transform="translate(94,135)"/>
<path d="M0 0 C1.98 0 3.96 0 6 0 C6 0.99 6 1.98 6 3 C4.02 3 2.04 3 0 3 C0 2.01 0 1.02 0 0 Z " fill="#0228CD" transform="translate(43,12)"/>
<path d="M0 0 C1 2 1 2 0.1875 5.0625 C-1 8 -1 8 -3 9 C-2.5020163 5.26512223 -2.12508244 3.18762365 0 0 Z " fill="#2142E3" transform="translate(42,151)"/>
<path d="M0 0 C1 3 1 3 -0.4375 6.1875 C-1.2109375 7.5796875 -1.2109375 7.5796875 -2 9 C-2.66 9 -3.32 9 -4 9 C-2.80100302 5.9168649 -1.52299523 2.93720508 0 0 Z " fill="#CCD8FD" transform="translate(27,147)"/>
<path d="M0 0 C0.185625 0.9590625 0.185625 0.9590625 0.375 1.9375 C0.684375 2.9584375 0.684375 2.9584375 1 4 C1.66 4.33 2.32 4.66 3 5 C2.34 5 1.68 5 1 5 C0.67 6.32 0.34 7.64 0 9 C-0.12375 8.360625 -0.2475 7.72125 -0.375 7.0625 C-0.684375 6.0415625 -0.684375 6.0415625 -1 5 C-1.66 4.67 -2.32 4.34 -3 4 C-2.01 4 -1.02 4 0 4 C0 2.68 0 1.36 0 0 Z " fill="#001DB5" transform="translate(178,132)"/>
<path d="M0 0 C0.66 0.33 1.32 0.66 2 1 C0.35 3.64 -1.3 6.28 -3 9 C-3.33 8.01 -3.66 7.02 -4 6 C-2.0625 2.8125 -2.0625 2.8125 0 0 Z " fill="#C7D7FC" transform="translate(51,133)"/>
<path d="M0 0 C0.33 0 0.66 0 1 0 C1.36923077 5.53846154 1.36923077 5.53846154 -0.5 7.875 C-1.2425 8.431875 -1.2425 8.431875 -2 9 C-2.33 7.02 -2.66 5.04 -3 3 C-2.67 3.66 -2.34 4.32 -2 5 C-1.34 5 -0.68 5 0 5 C0 3.35 0 1.7 0 0 Z " fill="#1740E6" transform="translate(53,97)"/>
<path d="M0 0 C2 2 2 2 2 6 C0.68 6 -0.64 6 -2 6 C-1.49396008 3.83125748 -1.00016187 2.00032373 0 0 Z " fill="#DAE3F6" transform="translate(59,93)"/>
<path d="M0 0 C1.98 0 3.96 0 6 0 C6 0.99 6 1.98 6 3 C4.35 3 2.7 3 1 3 C0.67 2.01 0.34 1.02 0 0 Z " fill="#0226C9" transform="translate(104,12)"/>
</svg>
