<?xml version="1.0" encoding="UTF-8"?>
<svg version="1.1" xmlns="http://www.w3.org/2000/svg" width="1200" height="630">
<path d="M0 0 C396 0 792 0 1200 0 C1200 207.9 1200 415.8 1200 630 C804 630 408 630 0 630 C0 422.1 0 214.2 0 0 Z " fill="#3AB2C7" transform="translate(0,0)"/>
<path d="M0 0 C4.36864617 1.59848931 8.34426584 3.76676591 12.375 6.0625 C13.0863208 6.46533203 13.7976416 6.86816406 14.53051758 7.28320312 C19.54811291 10.13862748 24.51166376 13.0766372 29.44995117 16.06738281 C36.32137669 20.21899615 43.25718263 24.26037076 50.1875 28.3125 C59.38358033 33.6907199 68.55262612 39.10921743 77.67456055 44.61254883 C84.0813036 48.46923305 90.5350268 52.2418892 97 56 C106.95847092 61.78977172 116.85491944 67.67504192 126.71777344 73.62597656 C128.9883698 74.99299799 131.26291448 76.35318297 133.5390625 77.7109375 C134.24216553 78.13076904 134.94526855 78.55060059 135.66967773 78.9831543 C136.97846311 79.76430835 138.28783594 80.54447931 139.59790039 81.32348633 C143.88820214 83.88820214 143.88820214 83.88820214 145 85 C145.09494733 87.37300869 145.12559319 89.71678703 145.11352539 92.09008789 C145.11367142 92.83150528 145.11381744 93.57292267 145.1139679 94.33680725 C145.11326865 96.79878621 145.10547574 99.26069043 145.09765625 101.72265625 C145.09579211 103.42516539 145.09436819 105.12767507 145.09336853 106.83018494 C145.08954302 111.31993073 145.07971247 115.80964438 145.06866455 120.29937744 C145.05845113 124.87731491 145.05387106 129.45525756 145.04882812 134.03320312 C145.03809022 143.02214957 145.02101341 152.01107212 145 161 C142 162 142 162 139.6784668 160.95532227 C138.77781494 160.41447998 137.87716309 159.8736377 136.94921875 159.31640625 C135.44693726 158.42550293 135.44693726 158.42550293 133.91430664 157.51660156 C132.84946045 156.87174805 131.78461426 156.22689453 130.6875 155.5625 C128.49244484 154.25607793 126.29713389 152.95008556 124.1015625 151.64453125 C123.04356445 151.01111816 121.98556641 150.37770508 120.89550781 149.72509766 C117.47541497 147.68746055 114.02769792 145.70982505 110.5625 143.75 C105.58001911 140.91493218 100.62753169 138.03310044 95.6875 135.125 C94.98206055 134.71096924 94.27662109 134.29693848 93.54980469 133.87036133 C89.80015229 131.66575975 86.06689333 129.4377941 82.3515625 127.17578125 C81.21134644 126.48814697 81.21134644 126.48814697 80.0480957 125.78662109 C78.59656454 124.91066158 77.14947999 124.02727512 75.70776367 123.13525391 C75.04752197 122.73870605 74.38728027 122.3421582 73.70703125 121.93359375 C73.1344458 121.58353271 72.56186035 121.23347168 71.97192383 120.87280273 C69.42747302 119.64876251 69.42747302 119.64876251 64 119 C64 148.04 64 177.08 64 207 C60 208 60 208 57.2578125 206.62890625 C56.22398437 205.94699219 55.19015625 205.26507813 54.125 204.5625 C52.96622043 203.81426988 51.80601384 203.06824603 50.64453125 202.32421875 C49.74661865 201.74486572 49.74661865 201.74486572 48.83056641 201.15380859 C45.88093479 199.29465162 42.8507072 197.58425448 39.8125 195.875 C35.06180365 193.1980659 30.37612959 190.43318839 25.70532227 187.61914062 C22.91993045 185.95207822 20.12071011 184.31081036 17.31640625 182.67578125 C15.89618164 181.84530273 15.89618164 181.84530273 14.44726562 180.99804688 C12.49859693 179.8594544 10.54802328 178.72411686 8.59570312 177.59179688 C7.65791016 177.04201172 6.72011719 176.49222656 5.75390625 175.92578125 C4.49042358 175.18968628 4.49042358 175.18968628 3.20141602 174.4387207 C1.07202972 173.04707454 -0.41710619 171.98310445 -2 170 C-2.36749268 167.64794922 -2.36749268 167.64794922 -2.35644531 164.8046875 C-2.36087898 163.17669975 -2.36087898 163.17669975 -2.36540222 161.51582336 C-2.35310074 160.31435165 -2.34079926 159.11287994 -2.328125 157.875 C-2.3266597 156.59308273 -2.3251944 155.31116547 -2.32368469 153.99040222 C-2.3186979 150.41391297 -2.29421069 146.8377826 -2.26610184 143.26140976 C-2.24455809 140.23571486 -2.23375427 137.21002135 -2.22300434 134.18427181 C-2.18559602 123.78974604 -2.10677358 113.39565445 -2.02355194 103.00141144 C-1.99043625 98.7812156 -1.9599462 94.56100174 -1.92922783 90.34078789 C-1.82985803 76.74914792 -1.71653221 63.15766373 -1.59294128 49.56622314 C-1.56241024 46.17753758 -1.53304867 42.7888432 -1.50378418 39.40014648 C-1.45678513 34.03536982 -1.4042216 28.67067443 -1.34731102 23.30599403 C-1.32680572 21.30685368 -1.30797162 19.30769544 -1.29085732 17.30852318 C-1.26700843 14.56913474 -1.23701694 11.82988343 -1.20532227 9.09057617 C-1.19956806 8.27827545 -1.19381386 7.46597473 -1.18788528 6.62905884 C-1.11423523 1.11423523 -1.11423523 1.11423523 0 0 Z " fill="#FEFEFE" transform="translate(449,212)"/>
<path d="M0 0 C0.06925376 20.10290679 0.06583279 40.20532638 0.01897717 60.30827236 C0.00738106 65.31464497 -0.00221189 70.32101031 -0.00854492 75.32739258 C-0.02491607 87.70149122 -0.05993242 100.07522013 -0.13369846 112.44912243 C-0.16681704 118.07132929 -0.19132908 123.69327273 -0.19528198 129.31558228 C-0.19949628 134.66724911 -0.22748588 140.01827665 -0.27336884 145.36974335 C-0.28633932 147.36109464 -0.29073657 149.35252192 -0.28617096 151.34391022 C-0.2813062 154.08099347 -0.30709113 156.81613465 -0.34057617 159.55297852 C-0.32763724 160.75760223 -0.32763724 160.75760223 -0.31443691 161.98656178 C-0.39493212 165.87574962 -0.60828089 167.60054443 -3.38037109 170.42738342 C-4.24484863 170.94634689 -5.10932617 171.46531036 -6 172 C-6.84925049 172.53093262 -7.69850098 173.06186523 -8.57348633 173.60888672 C-9.48380615 174.12725098 -10.39412598 174.64561523 -11.33203125 175.1796875 C-12.36545654 175.77152832 -13.39888184 176.36336914 -14.46362305 176.97314453 C-15.56875244 177.60075684 -16.67388184 178.22836914 -17.8125 178.875 C-19.57166847 179.88030106 -21.32994065 180.88715718 -23.08815002 181.89413452 C-24.28924693 182.58196074 -25.49061433 183.26931481 -26.69224548 183.95620728 C-32.54765531 187.30548681 -38.36815586 190.71351109 -44.1875 194.125 C-52.86802555 199.20458324 -61.60110479 204.18237373 -70.3671875 209.11254883 C-78.17207876 213.51076434 -85.91183241 218.01459028 -93.64160156 222.54321289 C-102.79343203 227.89761257 -111.99574496 233.16101394 -121.2097168 238.4074707 C-122.310979 239.03484131 -123.41224121 239.66221191 -124.546875 240.30859375 C-125.61615234 240.91429199 -126.68542969 241.51999023 -127.78710938 242.14404297 C-129.99429763 243.41904639 -132.18244696 244.72740804 -134.35351562 246.06298828 C-135.94969727 247.03921143 -135.94969727 247.03921143 -137.578125 248.03515625 C-138.5259082 248.62820557 -139.47369141 249.22125488 -140.45019531 249.83227539 C-143.35019057 251.16037548 -144.07813212 250.90956545 -147 250 C-147.18556119 240.45548539 -147.32760546 230.91159374 -147.41449738 221.36566734 C-147.45620736 216.93274495 -147.51275363 212.5010586 -147.60351562 208.06884766 C-147.69059942 203.78935279 -147.73830567 199.51104462 -147.75901794 195.23073196 C-147.77377247 193.59992412 -147.80258749 191.96917955 -147.84584045 190.33887863 C-148.17076379 177.58154218 -148.17076379 177.58154218 -145.30818176 173.71458435 C-143.25585648 172.14034159 -141.35171787 171.06130813 -139 170 C-137.64489078 169.2127145 -136.29393289 168.41819325 -134.94921875 167.61328125 C-133.53161146 166.84088618 -132.11090391 166.07415995 -130.6875 165.3125 C-129.08904924 164.44025651 -127.49141828 163.5665093 -125.89453125 162.69140625 C-125.08193848 162.24684082 -124.2693457 161.80227539 -123.43212891 161.34423828 C-119.54943737 159.19827366 -115.71043631 156.97905191 -111.875 154.75 C-111.10768555 154.30414551 -110.34037109 153.85829102 -109.54980469 153.39892578 C-107.92194961 152.45171968 -106.29452266 151.50377751 -104.66748047 150.55517578 C-101.71820114 148.8357076 -98.76730109 147.11903785 -95.81640625 145.40234375 C-93.69000395 144.1642346 -91.56370066 142.9259554 -89.4375 141.6875 C-88.45056152 141.11290039 -87.46362305 140.53830078 -86.44677734 139.94628906 C-76.1695612 134.70715465 -76.1695612 134.70715465 -67 128 C-66.8960349 125.16058674 -66.85638853 122.34470008 -66.8581543 119.50463867 C-66.85294266 118.16806465 -66.85294266 118.16806465 -66.84762573 116.80448914 C-66.84025424 114.86250119 -66.83491632 112.92050473 -66.83133507 110.97850609 C-66.82419233 107.90660572 -66.80854228 104.83486721 -66.78999329 101.76301575 C-66.73742086 93.02652207 -66.68953508 84.29011523 -66.67407227 75.5534668 C-66.66400402 70.21589517 -66.63470663 64.87872735 -66.59275246 59.54131508 C-66.58041855 57.50436771 -66.57532554 55.46736336 -66.57755089 53.43037987 C-66.57989756 50.5809951 -66.5577851 47.73277287 -66.5300293 44.88354492 C-66.53993141 43.61707123 -66.53993141 43.61707123 -66.55003357 42.32501221 C-66.49149309 38.67126837 -66.37312846 36.48699722 -64.11488342 33.53959656 C-61.80304342 31.8566192 -59.49608164 30.40887374 -56.984375 29.0390625 C-55.99179687 28.4917749 -54.99921875 27.9444873 -53.9765625 27.38061523 C-52.91179687 26.80126221 -51.84703125 26.22190918 -50.75 25.625 C-48.49375012 24.38079312 -46.23856967 23.13464529 -43.984375 21.88671875 C-42.2528418 20.92838135 -42.2528418 20.92838135 -40.48632812 19.95068359 C-33.95564689 16.29661195 -27.50839768 12.50027016 -21.05761719 8.70751953 C-19.23218909 7.63543767 -17.40450338 6.56718741 -15.57421875 5.50341797 C-13.85953525 4.50199337 -12.15365685 3.48533626 -10.45703125 2.45361328 C-9.27173828 1.75147705 -9.27173828 1.75147705 -8.0625 1.03515625 C-7.37285156 0.61758057 -6.68320312 0.20000488 -5.97265625 -0.23022461 C-3.54638522 -1.17701082 -2.44501418 -0.71408998 0 0 Z " fill="#FDFEFE" transform="translate(754,216)"/>
<path d="M0 0 C2.5859375 1.19897461 2.5859375 1.19897461 5.375 2.90234375 C6.4283252 3.5370459 7.48165039 4.17174805 8.56689453 4.82568359 C9.71128331 5.52958941 10.85565123 6.23352914 12 6.9375 C13.19438466 7.66093262 14.38954987 8.38307796 15.58544922 9.10400391 C17.46111048 10.23496797 19.33620976 11.366774 21.20895386 12.50256348 C27.52183427 16.33022752 33.88785501 20.0646699 40.26300049 23.78741455 C42.73704167 25.23249076 45.20926232 26.68066603 47.68148804 28.12884521 C49.42161853 29.14817274 51.16197797 30.1671094 52.90234375 31.18603516 C62.72500349 36.93811286 72.52994232 42.7192343 82.31958008 48.52734375 C93.34263802 55.06696449 104.37891584 61.58310269 115.4375 68.0625 C116.03357056 68.41176544 116.62964111 68.76103088 117.24377441 69.12088013 C118.97355884 70.13423741 120.70357418 71.14720047 122.43359375 72.16015625 C123.5201123 72.80227051 124.60663086 73.44438477 125.72607422 74.10595703 C127.96572417 75.40164714 130.22953218 76.65621771 132.51220703 77.87451172 C133.61290527 78.47150879 134.71360352 79.06850586 135.84765625 79.68359375 C136.83902588 80.2036499 137.83039551 80.72370605 138.85180664 81.25952148 C141 83 141 83 141.32202148 85.70727539 C141.16262085 86.84217407 141.16262085 86.84217407 141 88 C140.38406982 88.3403125 139.76813965 88.680625 139.13354492 89.03125 C125.33335428 96.67107211 111.66359617 104.48537398 98.12573242 112.58007812 C96.03633727 113.82861334 93.94381395 115.07193404 91.84765625 116.30908203 C90.03041359 117.38814776 88.2242795 118.48630119 86.43359375 119.60888672 C85.66144531 120.07697754 84.88929688 120.54506836 84.09375 121.02734375 C83.44083984 121.435896 82.78792969 121.84444824 82.11523438 122.26538086 C79.04866453 123.33039802 77.11979116 122.83548099 74 122 C70.89477539 120.46875 70.89477539 120.46875 67.59765625 118.5 C67.00324738 118.14855423 66.4088385 117.79710846 65.79641724 117.43501282 C63.879694 116.29884408 61.97116562 115.14964348 60.0625 114 C58.73592729 113.21035058 57.40885788 112.42153498 56.08129883 111.63354492 C52.38070051 109.43363586 48.68947228 107.21851674 45 105 C43.53391318 104.12099532 42.06778136 103.24206568 40.6015625 102.36328125 C38.35136054 101.01161531 36.1026248 99.65750501 33.85546875 98.30078125 C27.5507161 94.51792966 21.17805645 90.84900218 14.82299805 87.15161133 C9.35990858 83.97000083 3.91023116 80.77067067 -1.5 77.5 C-7.77650001 73.70878362 -14.10216287 70.00445668 -20.4375 66.3125 C-21.45142822 65.72146484 -22.46535645 65.13042969 -23.51000977 64.52148438 C-28.85678839 61.40703507 -34.20765143 58.2997717 -39.5625 55.19921875 C-41.16460327 54.26952271 -41.16460327 54.26952271 -42.79907227 53.32104492 C-44.82938835 52.14297198 -46.86104034 50.96719706 -48.89428711 49.79418945 C-54.7431723 46.39765429 -60.42274162 42.82676977 -66 39 C-65.66277516 36.25086035 -65.30823238 35.24302101 -63.09594727 33.4987793 C-62.26119873 33.02867432 -61.4264502 32.55856934 -60.56640625 32.07421875 C-59.61975098 31.53216797 -58.6730957 30.99011719 -57.69775391 30.43164062 C-56.66312012 29.85607422 -55.62848633 29.28050781 -54.5625 28.6875 C-53.49950684 28.08228516 -52.43651367 27.47707031 -51.34130859 26.85351562 C-49.07258951 25.56202469 -46.80100273 24.27556083 -44.52685547 22.99365234 C-39.83334804 20.34636246 -35.16900758 17.64889027 -30.50366211 14.95239258 C-28.30667657 13.68284324 -26.10834216 12.4156243 -23.90844727 11.15112305 C-22.88936279 10.56500244 -21.87027832 9.97888184 -20.8203125 9.375 C-19.84223633 8.81425781 -18.86416016 8.25351563 -17.85644531 7.67578125 C-15.95181531 6.55839831 -14.06525324 5.40963363 -12.19824219 4.23046875 C-11.32586914 3.68003906 -10.45349609 3.12960938 -9.5546875 2.5625 C-8.79397949 2.06878906 -8.03327148 1.57507813 -7.24951172 1.06640625 C-4.5275856 -0.22395334 -2.98438072 -0.39953575 0 0 Z " fill="#FDFEFE" transform="translate(524,160)"/>
<path d="M0 0 C0.87108398 0.51763916 1.74216797 1.03527832 2.63964844 1.56860352 C3.61925537 2.14578125 4.5988623 2.72295898 5.6081543 3.31762695 C6.64464111 3.93798828 7.68112793 4.55834961 8.74902344 5.19750977 C10.35886108 6.14932129 10.35886108 6.14932129 12.0012207 7.12036133 C14.16708995 8.40146578 16.3312576 9.68545167 18.49365234 10.97241211 C21.78678064 12.93116803 25.08911095 14.87368607 28.39428711 16.81201172 C30.42028216 18.00048246 32.44432393 19.19221103 34.46777344 20.38500977 C37.29968189 22.05411102 40.13317593 23.72047928 42.96777344 25.38500977 C43.71551025 25.82425781 44.46324707 26.26350586 45.23364258 26.71606445 C46.63628306 27.53995834 48.03909628 28.36355829 49.44213867 29.18676758 C53.96139145 31.84256771 58.45877585 34.53342414 62.9519043 37.2331543 C67.06166782 39.69672768 71.18582257 42.13574699 75.31152344 44.57250977 C76.23731201 45.1194751 77.16310059 45.66644043 78.11694336 46.22998047 C83.66664865 49.5058956 89.22136017 52.77319029 94.78027344 56.03344727 C95.39911407 56.39648453 96.01795471 56.75952179 96.6555481 57.13356018 C99.78725274 58.97003547 102.9206472 60.80353015 106.05712891 62.63183594 C111.37597115 65.73501569 116.68224261 68.84924379 121.91308594 72.09985352 C122.69321045 72.57914307 123.47333496 73.05843262 124.27709961 73.55224609 C125.66109387 74.40642639 127.03715832 75.27367341 128.40258789 76.15722656 C131.23614086 77.8946349 133.00033774 78.79871411 136.35839844 78.53808594 C139.69171028 77.71227244 142.08378209 76.54862828 145.03417969 74.80297852 C146.08154297 74.19010986 147.12890625 73.57724121 148.20800781 72.94580078 C149.86799805 71.95664673 149.86799805 71.95664673 151.56152344 70.94750977 C152.71389968 70.27059303 153.86690189 69.59474086 155.02050781 68.91992188 C157.36867962 67.54530001 159.71440031 66.16664701 162.05810547 64.78442383 C167.18761435 61.76655185 172.33915096 58.78808432 177.49902344 55.82250977 C178.82365601 55.05233521 178.82365601 55.05233521 180.17504883 54.26660156 C180.98321045 53.80165283 181.79137207 53.3367041 182.62402344 52.85766602 C183.67976563 52.24677124 183.67976563 52.24677124 184.75683594 51.62353516 C186.49902344 50.76000977 186.49902344 50.76000977 188.49902344 50.76000977 C188.82902344 52.08000977 189.15902344 53.40000977 189.49902344 54.76000977 C186.43784775 57.38387464 185.76729217 57.76000977 181.49902344 57.76000977 C181.16902344 58.42000977 180.83902344 59.08000977 180.49902344 59.76000977 C185.10645209 58.54956845 185.10645209 58.54956845 189.49902344 56.76000977 C188.25355938 60.49640192 186.86497391 60.9475749 183.49902344 62.76000977 C184.48902344 62.76000977 185.47902344 62.76000977 186.49902344 62.76000977 C188.49902344 62.76000977 190.49902344 62.76000977 192.49902344 62.76000977 C191.23609917 66.54878256 190.15413371 66.79290625 186.70605469 68.65844727 C185.69293213 69.2145166 184.67980957 69.77058594 183.63598633 70.34350586 C182.53891357 70.93470215 181.44184082 71.52589844 180.31152344 72.13500977 C178.0341583 73.38259691 175.75814393 74.63265254 173.48339844 75.88500977 C172.61437645 76.36229019 172.61437645 76.36229019 171.72779846 76.84921265 C164.79212348 80.67350448 158.00661858 84.74855894 151.23071289 88.84741211 C150.37179443 89.36255371 149.51287598 89.87769531 148.62792969 90.40844727 C147.87584229 90.86396973 147.12375488 91.31949219 146.34887695 91.78881836 C144.49902344 92.76000977 144.49902344 92.76000977 142.49902344 92.76000977 C142.16902344 118.17000977 141.83902344 143.58000977 141.49902344 169.76000977 C146.13282949 167.81768558 146.13282949 167.81768558 150.63964844 165.61157227 C152.87370618 164.58841137 154.80749404 164.35043883 157.24902344 164.13500977 C158.44785156 164.02286133 158.44785156 164.02286133 159.67089844 163.90844727 C160.57582031 163.8349707 160.57582031 163.8349707 161.49902344 163.76000977 C161.49902344 163.10000977 161.49902344 162.44000977 161.49902344 161.76000977 C162.48902344 161.76000977 163.47902344 161.76000977 164.49902344 161.76000977 C164.49902344 162.42000977 164.49902344 163.08000977 164.49902344 163.76000977 C165.81902344 164.42000977 167.13902344 165.08000977 168.49902344 165.76000977 C169.06152344 168.38500977 169.06152344 168.38500977 168.49902344 171.76000977 C165.8819908 174.33448903 162.68456454 175.97399119 159.49902344 177.76000977 C158.85078613 178.12594238 158.20254883 178.491875 157.53466797 178.86889648 C154.66616304 180.48799058 151.79811734 182.10653745 148.90917969 183.68896484 C144.94482736 185.86465534 144.94482736 185.86465534 141.49902344 188.76000977 C141.20476595 191.95961717 141.20476595 191.95961717 141.27197266 195.7800293 C141.2716806 196.50208557 141.27138855 197.22414185 141.27108765 197.96807861 C141.27248335 200.35978118 141.28805561 202.75117398 141.30371094 205.14282227 C141.30744022 206.79906036 141.31028759 208.45530066 141.31228638 210.11154175 C141.31992955 214.47473217 141.33958384 218.83778983 141.36169434 223.20092773 C141.38213809 227.65159306 141.39128494 232.10227979 141.40136719 236.55297852 C141.42282914 245.28871658 141.45697326 254.02434667 141.49902344 262.76000977 C142.63339844 262.88375977 143.76777344 263.00750977 144.93652344 263.13500977 C146.69996094 263.44438477 146.69996094 263.44438477 148.49902344 263.76000977 C148.82902344 264.42000977 149.15902344 265.08000977 149.49902344 265.76000977 C146.85902344 266.42000977 144.21902344 267.08000977 141.49902344 267.76000977 C141.49902344 267.10000977 141.49902344 266.44000977 141.49902344 265.76000977 C140.50902344 265.10000977 139.51902344 264.44000977 138.49902344 263.76000977 C138.16902344 263.43000977 137.83902344 263.10000977 137.49902344 262.76000977 C137.49902344 264.08000977 137.49902344 265.40000977 137.49902344 266.76000977 C136.50902344 266.43000977 135.51902344 266.10000977 134.49902344 265.76000977 C133.83902344 266.75000977 133.17902344 267.74000977 132.49902344 268.76000977 C132.16902344 267.77000977 131.83902344 266.78000977 131.49902344 265.76000977 C130.01402344 267.24500977 130.01402344 267.24500977 128.49902344 268.76000977 C127.83902344 268.10000977 127.17902344 267.44000977 126.49902344 266.76000977 C127.15902344 265.77000977 127.81902344 264.78000977 128.49902344 263.76000977 C128.16902344 263.76000977 127.83902344 263.76000977 127.49902344 263.76000977 C127.4931572 262.82706589 127.48729095 261.89412201 127.48124695 260.9329071 C127.42407647 252.14813366 127.35134491 243.36360912 127.26330853 234.57908916 C127.21854809 230.06267258 127.17930466 225.54634738 127.15258789 221.02978516 C127.12661125 216.67243171 127.08624938 212.31542889 127.03583717 207.95829201 C127.01913015 206.29453703 127.00763981 204.63072135 127.00140953 202.96689415 C126.99180979 200.63933784 126.96380197 198.31268634 126.93139648 195.98535156 C126.93283157 195.294832 126.93426666 194.60431244 126.93574524 193.89286804 C126.87995485 191.06651338 126.8333943 189.2100248 125.11766052 186.90089417 C122.94131376 185.36691221 120.71605164 184.02461955 118.39746094 182.71313477 C117.36145752 182.12250244 116.3254541 181.53187012 115.25805664 180.92333984 C114.14132568 180.29194092 113.02459473 179.66054199 111.87402344 179.01000977 C109.51916918 177.66842542 107.16693289 176.32230157 104.81542969 174.97485352 C103.9120713 174.45763985 103.9120713 174.45763985 102.99046326 173.92997742 C95.49011328 169.62416434 88.08883024 165.15586676 80.68603516 160.68481445 C78.78763075 159.53866733 76.88768349 158.39506985 74.98583984 157.25463867 C73.44582503 156.32905741 71.91060232 155.39538694 70.38330078 154.44897461 C67.0301344 152.41893514 65.54490427 151.76000977 61.49902344 151.76000977 C61.48871597 152.44080093 61.47840851 153.1215921 61.4677887 153.82301331 C61.36891259 160.30822603 61.2662892 166.79336808 61.15968418 173.2784586 C61.10503255 176.61074467 61.05213371 179.94303636 61.00170898 183.27539062 C60.61339455 208.83223334 60.61339455 208.83223334 60.15136719 217.78735352 C60.09843506 218.85590576 60.04550293 219.92445801 59.9909668 221.02539062 C59.42314864 224.18178327 58.40912107 226.19584572 56.49902344 228.76000977 C55.83902344 228.76000977 55.17902344 228.76000977 54.49902344 228.76000977 C54.16902344 225.13000977 53.83902344 221.50000977 53.49902344 217.76000977 C52.50902344 218.42000977 51.51902344 219.08000977 50.49902344 219.76000977 C47.40838883 220.82640642 44.97072838 220.74891189 41.74902344 220.32250977 C40.55019531 220.16975586 40.55019531 220.16975586 39.32714844 220.01391602 C38.72386719 219.93012695 38.12058594 219.84633789 37.49902344 219.76000977 C37.49902344 219.10000977 37.49902344 218.44000977 37.49902344 217.76000977 C40.40502605 216.50335999 42.29506928 215.76000977 45.49902344 215.76000977 C45.82902344 186.72000977 46.15902344 157.68000977 46.49902344 127.76000977 C50.87543593 126.66590664 51.69081147 127.06769768 55.41894531 129.20996094 C56.06412109 129.59772705 56.70929688 129.98549316 57.37402344 130.38500977 C58.06818359 130.78888916 58.76234375 131.19276855 59.47753906 131.60888672 C61.82571216 132.97993836 64.16241594 134.36934992 66.49902344 135.76000977 C68.19912117 136.76203006 69.89965454 137.76331152 71.60058594 138.76391602 C75.27623853 140.92946894 78.94737087 143.10246874 82.61621094 145.27954102 C91.58794848 150.59696618 100.60171525 155.84321021 109.62109375 161.0793457 C111.68849957 162.28667703 113.74963732 163.50476565 115.80664062 164.72973633 C117.42940918 165.69218262 117.42940918 165.69218262 119.08496094 166.67407227 C120.07286621 167.26397949 121.06077148 167.85388672 122.07861328 168.46166992 C124.33499004 169.91757639 124.33499004 169.91757639 126.49902344 169.76000977 C126.84751967 160.00743622 127.11354301 150.25635563 127.27620602 140.49881077 C127.35430925 135.9668509 127.4600715 131.43916611 127.63061523 126.90966797 C127.7943762 122.53260354 127.88342406 118.15962961 127.92218208 113.77973747 C127.94977107 112.11465933 128.00366476 110.44979092 128.08497429 108.78647041 C128.33658277 103.42297934 128.29336988 98.86358975 126.49902344 93.76000977 C122.91532964 89.87776764 118.19306262 87.73475769 113.4221096 85.64361095 C110.39475152 84.25262949 107.63152018 82.51442061 104.79589844 80.76782227 C102.61400683 79.47287713 100.43170965 78.17861512 98.24902344 76.88500977 C97.67285278 76.54339813 97.09668213 76.2017865 96.50305176 75.849823 C88.33588047 71.00903569 80.14145045 66.21814567 71.91552734 61.4777832 C66.867468 58.56472576 61.86122479 55.59250284 56.8737793 52.57666016 C50.84445223 48.94283381 44.76161464 45.40129151 38.68218994 41.85223389 C26.63585162 34.81875076 14.66772816 27.66937032 2.77368164 20.38110352 C-0.31074182 18.49524989 -3.40240283 16.62250608 -6.50097656 14.76000977 C-7.38720703 14.22311523 -8.2734375 13.6862207 -9.18652344 13.13305664 C-10.38631836 12.43019531 -10.38631836 12.43019531 -11.61035156 11.71313477 C-12.29581055 11.30740234 -12.98126953 10.90166992 -13.6875 10.48364258 C-15.68176938 9.46177186 -15.68176938 9.46177186 -18.50097656 10.76000977 C-18.83097656 34.85000977 -19.16097656 58.94000977 -19.50097656 83.76000977 C-20.98597656 84.25500977 -20.98597656 84.25500977 -22.50097656 84.76000977 C-22.83097656 92.68000977 -23.16097656 100.60000977 -23.50097656 108.76000977 C-24.16097656 108.76000977 -24.82097656 108.76000977 -25.50097656 108.76000977 C-25.50097656 90.28000977 -25.50097656 71.80000977 -25.50097656 52.76000977 C-24.84097656 52.76000977 -24.18097656 52.76000977 -23.50097656 52.76000977 C-23.51257813 51.70040039 -23.52417969 50.64079102 -23.53613281 49.54907227 C-23.54551132 48.16105319 -23.55461146 46.77303221 -23.56347656 45.38500977 C-23.57604492 44.33700195 -23.57604492 44.33700195 -23.58886719 43.26782227 C-23.61425781 37.98657227 -23.61425781 37.98657227 -22.50097656 35.76000977 C-22.37119334 33.89814069 -22.29847671 32.0321375 -22.25488281 30.16625977 C-22.22201172 29.05379883 -22.18914062 27.94133789 -22.15527344 26.79516602 C-22.09407807 24.43849331 -22.03678593 22.08171602 -21.98339844 19.72485352 C-21.94923828 18.61239258 -21.91507812 17.49993164 -21.87988281 16.35375977 C-21.85482666 15.32959961 -21.82977051 14.30543945 -21.80395508 13.25024414 C-21.50097656 10.76000977 -21.50097656 10.76000977 -19.50097656 8.76000977 C-18.80349073 7.44253653 -18.13137699 6.11086783 -17.50097656 4.76000977 C-15.02597656 5.75000977 -15.02597656 5.75000977 -12.50097656 6.76000977 C-12.39140625 6.19411133 -12.28183594 5.62821289 -12.16894531 5.04516602 C-11.93111328 3.94495117 -11.93111328 3.94495117 -11.68847656 2.82250977 C-11.46224609 1.72616211 -11.46224609 1.72616211 -11.23144531 0.60766602 C-10.99039062 -0.00206055 -10.74933594 -0.61178711 -10.50097656 -1.23999023 C-6.35542703 -2.62184008 -3.87659196 -1.92202368 0 0 Z " fill="#34AFC6" transform="translate(466.5009765625,203.239990234375)"/>
<path d="M0 0 C6.09569313 0.23184887 10.52244746 3.39730075 15.5625 6.5 C17.51373683 7.67805462 19.46559385 8.85508245 21.41796875 10.03125 C22.46774902 10.66675781 23.5175293 11.30226563 24.59912109 11.95703125 C28.2557024 14.153605 31.930284 16.31688514 35.61328125 18.46875 C36.57969292 19.0334198 36.57969292 19.0334198 37.56562805 19.60949707 C39.50181654 20.74012605 41.43835002 21.87016173 43.375 23 C45.80044156 24.41502774 48.22482955 25.83183436 50.6484375 27.25 C51.68145996 27.85328125 52.71448242 28.4565625 53.77880859 29.078125 C54.84180176 29.71234375 55.90479492 30.3465625 57 31 C57.7085614 31.24554123 58.4171228 31.49108246 59.14715576 31.74406433 C61.81886752 32.86171054 63.19051546 33.7141062 65 36 C66.1625247 41.69657147 65.9302299 47.32448564 65.78125 53.11328125 C65.76632182 54.81004671 65.75493751 56.50684674 65.74694824 58.20365906 C65.71645825 62.66142636 65.63792635 67.11709532 65.54931641 71.57403564 C65.46735476 76.12524019 65.43091499 80.67678518 65.390625 85.22851562 C65.3049258 94.15326379 65.16845973 103.07645716 65 112 C61.31188965 113.14007568 61.31188965 113.14007568 58.50488281 111.87939453 C57.58030273 111.30302246 56.65572266 110.72665039 55.703125 110.1328125 C54.15286621 109.18160522 54.15286621 109.18160522 52.57128906 108.21118164 C51.47526367 107.5227417 50.37923828 106.83430176 49.25 106.125 C46.98207399 104.72570122 44.70941505 103.33423286 42.4375 101.94140625 C40.78041016 100.92071045 40.78041016 100.92071045 39.08984375 99.87939453 C35.19445198 97.51002618 31.2429843 95.26214045 27.25 93.0625 C21.32097972 89.78065018 15.53979524 86.31353044 9.79296875 82.72265625 C7.47298929 81.29173186 5.13778473 79.93755509 2.75 78.625 C0 77 0 77 -1 75 C-1.09735566 72.66691519 -1.12797326 70.33096435 -1.12939453 67.99584961 C-1.13114685 67.27539963 -1.13289917 66.55494965 -1.13470459 65.81266785 C-1.13911413 63.42586881 -1.13618858 61.03914357 -1.1328125 58.65234375 C-1.13348572 56.99849941 -1.1344559 55.34465516 -1.13571167 53.69081116 C-1.13718736 50.22314513 -1.13503792 46.75550484 -1.13037109 43.2878418 C-1.12466943 38.83311131 -1.12795638 34.37844101 -1.13394356 29.92371273 C-1.13754884 26.50862673 -1.13641082 23.09355512 -1.13381577 19.6784687 C-1.13314663 18.03534501 -1.13397444 16.39222002 -1.13629532 14.74909782 C-1.13882178 12.45761505 -1.13498158 10.16623122 -1.12939453 7.87475586 C-1.12859894 6.56840683 -1.12780334 5.2620578 -1.12698364 3.91612244 C-1 1 -1 1 0 0 Z " fill="#FDFEFE" transform="translate(528,354)"/>
<path d="M0 0 C2.71875 1.1706543 2.71875 1.1706543 5.5 2.82421875 C6.5413208 3.43450928 7.5826416 4.0447998 8.65551758 4.67358398 C9.75919678 5.33817627 10.86287598 6.00276855 12 6.6875 C13.1577572 7.37234306 14.31621428 8.05600423 15.4753418 8.73852539 C17.84118975 10.13437998 20.20245619 11.53753019 22.56005859 12.94726562 C25.74530944 14.85108347 28.94287704 16.73324642 32.14453125 18.609375 C36.65642515 21.25448903 41.15317266 23.92387471 45.64404297 26.60449219 C47.83711261 27.90351665 50.04234882 29.17810431 52.25390625 30.4453125 C53.46110756 31.15075074 54.66815352 31.85645491 55.875 32.5625 C56.88304687 33.14128906 57.89109375 33.72007812 58.9296875 34.31640625 C59.61289062 34.87199219 60.29609375 35.42757812 61 36 C61 37.32 61 38.64 61 40 C59.59375 41.38671875 59.59375 41.38671875 57.5 42.6875 C56.66597656 43.20699219 55.83195313 43.72648437 54.97265625 44.26171875 C50.98562475 46.59316293 46.97050504 48.87096541 42.93286133 51.11328125 C35.44903764 55.27390743 28.06937631 59.60996768 20.68920898 63.95117188 C17.79945612 65.64583805 14.90036966 67.32358535 12 69 C10.53167725 69.87132568 10.53167725 69.87132568 9.03369141 70.76025391 C8.08026855 71.30987793 7.1268457 71.85950195 6.14453125 72.42578125 C5.29866455 72.92118408 4.45279785 73.41658691 3.58129883 73.92700195 C0.50624888 75.20524318 -1.69719308 75.28353889 -5 75 C-7.36898896 73.95275173 -9.42189455 72.88718174 -11.625 71.5625 C-12.28886719 71.17707031 -12.95273437 70.79164063 -13.63671875 70.39453125 C-22.05105837 65.46761634 -30.35914211 60.34929559 -38.66967773 55.24926758 C-45.86185445 50.84419642 -53.08968592 46.53495436 -60.64648438 42.77539062 C-63.59588756 41.22289894 -64.83428877 40.50654089 -65.89453125 37.265625 C-65.92933594 36.51796875 -65.96414063 35.7703125 -66 35 C-54.92044067 28.44176502 -43.79299006 21.96972452 -32.62451172 15.56396484 C-27.63846769 12.69964168 -22.6686392 9.82107883 -17.765625 6.81640625 C-16.9921875 6.34589844 -16.21875 5.87539062 -15.421875 5.390625 C-14.02430433 4.53599545 -12.63305969 3.6708875 -11.25 2.79296875 C-7.24001305 0.34990947 -4.65720465 -0.41678133 0 0 Z " fill="#FCFEFE" transform="translate(684,161)"/>
<path d="M0 0 C0.18555212 9.67490198 0.32760108 19.34918955 0.41449738 29.02548409 C0.4562092 33.51893178 0.51275927 38.01116029 0.60351562 42.50390625 C0.69059219 46.84175416 0.73830428 51.17843147 0.75901794 55.51708603 C0.77377371 57.17021999 0.80259106 58.82329146 0.84584045 60.47592545 C1.17011722 73.38321579 1.17011722 73.38321579 -1.64416504 77.27178955 C-3.69825919 78.85497434 -5.63812652 79.9427604 -8 81 C-8.93134766 81.57556641 -9.86269531 82.15113281 -10.82226562 82.74414062 C-11.67498047 83.21013672 -12.52769531 83.67613281 -13.40625 84.15625 C-14.38625977 84.69725342 -15.36626953 85.23825684 -16.37597656 85.7956543 C-17.4069043 86.35808838 -18.43783203 86.92052246 -19.5 87.5 C-28.47859667 92.46019907 -37.39728877 97.50569121 -46.25 102.6875 C-47.75723633 103.56921875 -47.75723633 103.56921875 -49.29492188 104.46875 C-54.47840559 107.48627366 -54.47840559 107.48627366 -59.55371094 110.67895508 C-62 112 -62 112 -66 112 C-66.06945668 102.27307263 -66.12278917 92.54620409 -66.15543652 82.8190794 C-66.17110424 78.30255574 -66.19236257 73.78620152 -66.22631836 69.26977539 C-66.25887255 64.91259403 -66.27684468 60.55557582 -66.28463173 56.19828224 C-66.29018235 54.53445682 -66.30102118 52.8706405 -66.31719017 51.20688438 C-66.33891251 48.87950596 -66.34196917 46.55280499 -66.34057617 44.2253418 C-66.351362 43.53482224 -66.36214783 42.84430267 -66.3732605 42.13285828 C-66.35492934 39.30945739 -66.33999417 37.46134712 -64.6342926 35.14683533 C-62.3397757 33.53669952 -59.985187 32.12684342 -57.546875 30.7421875 C-56.45963135 30.12077881 -55.3723877 29.49937012 -54.25219727 28.85913086 C-53.08480313 28.19774516 -51.91740395 27.53636838 -50.75 26.875 C-48.37759529 25.52182053 -46.00712667 24.16526728 -43.63671875 22.80859375 C-42.49122559 22.15358887 -41.34573242 21.49858398 -40.16552734 20.82373047 C-36.26707335 18.57774471 -32.40684718 16.27453494 -28.5625 13.9375 C-23.5721688 10.91043001 -18.52135115 8.03247038 -13.37109375 5.28515625 C-11.22659498 4.12281672 -9.14728367 2.88997445 -7.0625 1.625 C-4 0 -4 0 0 0 Z " fill="#FDFEFE" transform="translate(674,261)"/>
<path d="M0 0 C0.87108398 0.51763916 1.74216797 1.03527832 2.63964844 1.56860352 C3.61925537 2.14578125 4.5988623 2.72295898 5.6081543 3.31762695 C6.64464111 3.93798828 7.68112793 4.55834961 8.74902344 5.19750977 C10.35886108 6.14932129 10.35886108 6.14932129 12.0012207 7.12036133 C14.16708995 8.40146578 16.3312576 9.68545167 18.49365234 10.97241211 C21.78678064 12.93116803 25.08911095 14.87368607 28.39428711 16.81201172 C30.42028216 18.00048246 32.44432393 19.19221103 34.46777344 20.38500977 C37.29968189 22.05411102 40.13317593 23.72047928 42.96777344 25.38500977 C43.71551025 25.82425781 44.46324707 26.26350586 45.23364258 26.71606445 C46.63628306 27.53995834 48.03909628 28.36355829 49.44213867 29.18676758 C53.09979668 31.33623987 56.74539459 33.50450115 60.38183594 35.68969727 C65.38549304 38.69637483 70.40846388 41.66936916 75.43652344 44.63500977 C84.42087238 49.93878566 93.39910713 55.25279475 102.37402344 60.57250977 C102.98172577 60.93270203 103.5894281 61.29289429 104.21554565 61.66400146 C107.64348338 63.69581567 111.07130611 65.72782377 114.49902344 67.76000977 C114.16902344 69.08000977 113.83902344 70.40000977 113.49902344 71.76000977 C112.17902344 72.09000977 110.85902344 72.42000977 109.49902344 72.76000977 C110.15902344 72.76000977 110.81902344 72.76000977 111.49902344 72.76000977 C111.49902344 73.42000977 111.49902344 74.08000977 111.49902344 74.76000977 C113.41714844 74.45063477 113.41714844 74.45063477 115.37402344 74.13500977 C117.55371094 73.78344727 117.55371094 73.78344727 119.49902344 73.76000977 C120.15902344 74.42000977 120.81902344 75.08000977 121.49902344 75.76000977 C118.19902344 76.75000977 114.89902344 77.74000977 111.49902344 78.76000977 C112.81902344 79.42000977 114.13902344 80.08000977 115.49902344 80.76000977 C116.81152344 82.69750977 116.81152344 82.69750977 117.49902344 84.76000977 C117.16902344 85.75000977 116.83902344 86.74000977 116.49902344 87.76000977 C88.91308593 71.45922851 88.91308593 71.45922851 86.20239258 69.85742188 C84.38130506 68.78134713 82.56017796 67.70533936 80.73901367 66.62939453 C76.24013627 63.97134583 71.74187306 61.3122712 67.24511719 58.65063477 C65.47563471 57.60367733 63.70610291 56.55680325 61.93652344 55.51000977 C61.04271973 54.98117187 60.14891602 54.45233398 59.22802734 53.9074707 C54.04420413 50.84384843 48.85218228 47.79468898 43.65136719 44.76000977 C41.22534525 43.34375491 38.79955997 41.92709579 36.37402344 40.51000977 C35.76916107 40.15664551 35.16429871 39.80328125 34.54110718 39.43920898 C23.87874957 33.2045712 13.3033111 26.8334269 2.77197266 20.38012695 C-0.3118634 18.4945684 -3.40296431 16.62216858 -6.50097656 14.76000977 C-7.38720703 14.22311523 -8.2734375 13.6862207 -9.18652344 13.13305664 C-10.38631836 12.43019531 -10.38631836 12.43019531 -11.61035156 11.71313477 C-12.29581055 11.30740234 -12.98126953 10.90166992 -13.6875 10.48364258 C-15.68176938 9.46177186 -15.68176938 9.46177186 -18.50097656 10.76000977 C-18.83097656 34.85000977 -19.16097656 58.94000977 -19.50097656 83.76000977 C-20.98597656 84.25500977 -20.98597656 84.25500977 -22.50097656 84.76000977 C-22.83097656 92.68000977 -23.16097656 100.60000977 -23.50097656 108.76000977 C-24.16097656 108.76000977 -24.82097656 108.76000977 -25.50097656 108.76000977 C-25.50097656 90.28000977 -25.50097656 71.80000977 -25.50097656 52.76000977 C-24.84097656 52.76000977 -24.18097656 52.76000977 -23.50097656 52.76000977 C-23.51257813 51.70040039 -23.52417969 50.64079102 -23.53613281 49.54907227 C-23.54551132 48.16105319 -23.55461146 46.77303221 -23.56347656 45.38500977 C-23.57604492 44.33700195 -23.57604492 44.33700195 -23.58886719 43.26782227 C-23.61425781 37.98657227 -23.61425781 37.98657227 -22.50097656 35.76000977 C-22.37119334 33.89814069 -22.29847671 32.0321375 -22.25488281 30.16625977 C-22.22201172 29.05379883 -22.18914062 27.94133789 -22.15527344 26.79516602 C-22.09407807 24.43849331 -22.03678593 22.08171602 -21.98339844 19.72485352 C-21.94923828 18.61239258 -21.91507812 17.49993164 -21.87988281 16.35375977 C-21.85482666 15.32959961 -21.82977051 14.30543945 -21.80395508 13.25024414 C-21.50097656 10.76000977 -21.50097656 10.76000977 -19.50097656 8.76000977 C-18.80349073 7.44253653 -18.13137699 6.11086783 -17.50097656 4.76000977 C-15.02597656 5.75000977 -15.02597656 5.75000977 -12.50097656 6.76000977 C-12.39140625 6.19411133 -12.28183594 5.62821289 -12.16894531 5.04516602 C-11.93111328 3.94495117 -11.93111328 3.94495117 -11.68847656 2.82250977 C-11.46224609 1.72616211 -11.46224609 1.72616211 -11.23144531 0.60766602 C-10.99039062 -0.00206055 -10.74933594 -0.61178711 -10.50097656 -1.23999023 C-6.35542703 -2.62184008 -3.87659196 -1.92202368 0 0 Z " fill="#33AACA" transform="translate(466.5009765625,203.239990234375)"/>
<path d="M0 0 C1.3161731 0.77645874 1.3161731 0.77645874 2.65893555 1.56860352 C3.64498779 2.14626465 4.63104004 2.72392578 5.64697266 3.3190918 C6.6860376 3.93896973 7.72510254 4.55884766 8.7956543 5.19750977 C10.39195679 6.14279541 10.39195679 6.14279541 12.02050781 7.10717773 C14.1677197 8.38270745 16.3125262 9.6622956 18.45483398 10.94604492 C21.1585108 12.56554821 23.870734 14.16959616 26.5847168 15.77172852 C28.03103455 16.64115218 29.47642548 17.5121205 30.9206543 18.38500977 C31.58170166 18.77358154 32.24274902 19.16215332 32.92382812 19.5625 C35.43445832 21.10826055 37.21774673 22.20916387 38.51831055 24.90844727 C38.4831543 26.76000977 38.4831543 26.76000977 36.4831543 28.76000977 C35.4931543 29.09000977 34.5031543 29.42000977 33.4831543 29.76000977 C33.4831543 30.75000977 33.4831543 31.74000977 33.4831543 32.76000977 C29.59910256 34.70203563 25.43127307 33.05869127 21.4831543 31.76000977 C16.61078754 29.27440285 12.02929237 26.38639576 7.4206543 23.44750977 C6.19434386 22.67848963 4.96713403 21.91090178 3.73901367 21.14477539 C2.84020981 20.58392746 2.84020981 20.58392746 1.92324829 20.01174927 C1.33329071 19.64379242 0.74333313 19.27583557 0.13549805 18.89672852 C-0.44342194 18.53497528 -1.02234192 18.17322205 -1.61880493 17.80050659 C-4.95907992 15.71683718 -8.30225981 13.64259636 -11.70043945 11.65454102 C-12.37518311 11.25726807 -13.04992676 10.85999512 -13.74511719 10.45068359 C-15.70723084 9.46835953 -15.70723084 9.46835953 -18.5168457 10.76000977 C-18.8468457 34.85000977 -19.1768457 58.94000977 -19.5168457 83.76000977 C-21.0018457 84.25500977 -21.0018457 84.25500977 -22.5168457 84.76000977 C-22.8468457 92.68000977 -23.1768457 100.60000977 -23.5168457 108.76000977 C-24.1768457 108.76000977 -24.8368457 108.76000977 -25.5168457 108.76000977 C-25.5168457 90.28000977 -25.5168457 71.80000977 -25.5168457 52.76000977 C-24.8568457 52.76000977 -24.1968457 52.76000977 -23.5168457 52.76000977 C-23.52844727 51.70040039 -23.54004883 50.64079102 -23.55200195 49.54907227 C-23.56138046 48.16105319 -23.5704806 46.77303221 -23.5793457 45.38500977 C-23.59191406 44.33700195 -23.59191406 44.33700195 -23.60473633 43.26782227 C-23.63012695 37.98657227 -23.63012695 37.98657227 -22.5168457 35.76000977 C-22.38706248 33.89814069 -22.31434586 32.0321375 -22.27075195 30.16625977 C-22.23788086 29.05379883 -22.20500977 27.94133789 -22.17114258 26.79516602 C-22.10994721 24.43849331 -22.05265507 22.08171602 -21.99926758 19.72485352 C-21.96510742 18.61239258 -21.93094727 17.49993164 -21.89575195 16.35375977 C-21.8706958 15.32959961 -21.84563965 14.30543945 -21.81982422 13.25024414 C-21.5168457 10.76000977 -21.5168457 10.76000977 -19.5168457 8.76000977 C-18.81935987 7.44253653 -18.14724613 6.11086783 -17.5168457 4.76000977 C-15.0418457 5.75000977 -15.0418457 5.75000977 -12.5168457 6.76000977 C-12.40727539 6.19411133 -12.29770508 5.62821289 -12.18481445 5.04516602 C-11.94698242 3.94495117 -11.94698242 3.94495117 -11.7043457 2.82250977 C-11.47811523 1.72616211 -11.47811523 1.72616211 -11.24731445 0.60766602 C-11.00625977 -0.00206055 -10.76520508 -0.61178711 -10.5168457 -1.23999023 C-6.36557937 -2.62374568 -3.88581825 -1.91445056 0 0 Z " fill="#2EA3D0" transform="translate(466.516845703125,203.239990234375)"/>
<path d="M0 0 C0.66 0.33 1.32 0.66 2 1 C2.02318164 8.623554 2.0409448 16.24710434 2.05181217 23.87068558 C2.05702825 27.41071061 2.06410276 30.95071151 2.07543945 34.49072266 C2.08839423 38.56152578 2.09323876 42.63230359 2.09765625 46.703125 C2.10281754 47.97303284 2.10797882 49.24294067 2.11329651 50.55133057 C2.11337204 51.73225281 2.11344757 52.91317505 2.11352539 54.12988281 C2.115746 55.16912903 2.11796661 56.20837524 2.12025452 57.27911377 C2.01374985 59.68889498 1.69407081 61.70036807 1 64 C-0.98 64 -2.96 64 -5 64 C-5.31697855 55.93465689 -5.09805773 48.47590616 -3.5 40.5625 C-1.83668068 32.31068331 -1.69509553 24.3905194 -2 16 C-1.34 16 -0.68 16 0 16 C0 10.72 0 5.44 0 0 Z " fill="#2DA2D0" transform="translate(445,320)"/>
<path d="M0 0 C0 2.31 0 4.62 0 7 C0.99 7 1.98 7 3 7 C10.70449679 7.70449679 10.70449679 7.70449679 12 9 C12.33 8.34 12.66 7.68 13 7 C13.99 7.33 14.98 7.66 16 8 C16 9.65 16 11.3 16 13 C15.01 13 14.02 13 13 13 C13 13.66 13 14.32 13 15 C18.05009595 15.93786082 18.05009595 15.93786082 23 15 C23.495 18.465 23.495 18.465 24 22 C17.45227699 20.03679225 11.85785457 16.68145621 6.01171875 13.23291016 C4.11768703 12.12070571 2.21174621 11.03108412 0.3046875 9.94140625 C-0.89922986 9.23572506 -2.10238375 8.52873938 -3.3046875 7.8203125 C-4.39765137 7.18367676 -5.49061523 6.54704102 -6.61669922 5.89111328 C-7.40318848 5.2670459 -8.18967773 4.64297852 -9 4 C-9 2.68 -9 1.36 -9 0 C-3.375 -1.125 -3.375 -1.125 0 0 Z " fill="#3AB9BD" transform="translate(712,169)"/>
<path d="M0 0 C0.66 0 1.32 0 2 0 C2.33 1.65 2.66 3.3 3 5 C3.66 5 4.32 5 5 5 C3.7632378 8.7102866 1.99979707 9.60016234 -1 12 C-1.33 12.99 -1.66 13.98 -2 15 C-4.97 14.505 -4.97 14.505 -8 14 C-8.66 16.97 -9.32 19.94 -10 23 C-11.32 23.33 -12.64 23.66 -14 24 C-14.33 23.34 -14.66 22.68 -15 22 C-16.98 22.66 -18.96 23.32 -21 24 C-21.33 22.68 -21.66 21.36 -22 20 C-19.06482399 18.34999614 -16.12647526 16.70572568 -13.1875 15.0625 C-12.35412109 14.59392578 -11.52074219 14.12535156 -10.66210938 13.64257812 C-9.85966797 13.19462891 -9.05722656 12.74667969 -8.23046875 12.28515625 C-7.49207764 11.87144775 -6.75368652 11.45773926 -5.99291992 11.03149414 C-4 10 -4 10 -1 9 C-0.67 6.03 -0.34 3.06 0 0 Z " fill="#3EBDB9" transform="translate(754,376)"/>
<path d="M0 0 C4.63267872 1.67719288 8.79169731 4.0143773 13.0625 6.4375 C13.76955078 6.83259766 14.47660156 7.22769531 15.20507812 7.63476562 C22.43479033 11.71463139 22.43479033 11.71463139 25 14 C25 14.66 25 15.32 25 16 C23.58566794 16.2236337 22.16832382 16.42826476 20.75 16.625 C19.56664062 16.79902344 19.56664062 16.79902344 18.359375 16.9765625 C15.61774001 17.00379728 14.24308801 16.56215058 12 15 C11.25 11.875 11.25 11.875 11 9 C8.69 9 6.38 9 4 9 C4.33 7.68 4.66 6.36 5 5 C4.01 4.67 3.02 4.34 2 4 C0.3125 2.4375 0.3125 2.4375 -1 1 C-0.67 0.67 -0.34 0.34 0 0 Z " fill="#33A7CE" transform="translate(460,391)"/>
<path d="M0 0 C-2.25308693 6.07277336 -5.53265552 8.01485894 -11 10.875 C-12.08667969 11.47828125 -12.08667969 11.47828125 -13.1953125 12.09375 C-18.55309311 15 -18.55309311 15 -22 15 C-22 13.02 -22 11.04 -22 9 C-20.35 8.67 -18.7 8.34 -17 8 C-17 8.66 -17 9.32 -17 10 C-13.79273753 8.24118611 -13.79273753 8.24118611 -12.625 5 C-11 2 -11 2 -8.6875 0.625 C-5.70737674 -0.06805192 -3.04967673 -0.14184543 0 0 Z " fill="#32A4D1" transform="translate(486,176)"/>
<path d="M0 0 C0.99 0.495 0.99 0.495 2 1 C2.6492751 14.67449331 3.16741675 28.30903057 3 42 C2.01 42 1.02 42 0 42 C0 28.14 0 14.28 0 0 Z " fill="#38BBB8" transform="translate(754,287)"/>
<path d="M0 0 C2 3 2 3 1.625 5.1875 C1.41875 5.785625 1.2125 6.38375 1 7 C0.2575 6.9175 -0.485 6.835 -1.25 6.75 C-4.8261787 7.07510715 -5.55701755 8.48067435 -8 11 C-10.75 11.75 -10.75 11.75 -13 12 C-13 12.66 -13 13.32 -13 14 C-14.32 13.67 -15.64 13.34 -17 13 C-17.33 13.66 -17.66 14.32 -18 15 C-18.33 13.68 -18.66 12.36 -19 11 C-12.73 7.37 -6.46 3.74 0 0 Z " fill="#3BBABC" transform="translate(710,409)"/>
<path d="M0 0 C4.29 0 8.58 0 13 0 C11.78836152 3.63491543 10.89228938 3.95246215 7.625 5.75 C6.43777344 6.42289063 6.43777344 6.42289063 5.2265625 7.109375 C3 8 3 8 0 7 C0 4.69 0 2.38 0 0 Z " fill="#32A7CD" transform="translate(504,160)"/>
<path d="M0 0 C0.79921875 0.01804688 1.5984375 0.03609375 2.421875 0.0546875 C3.02515625 0.07789063 3.6284375 0.10109375 4.25 0.125 C4.00390625 1.984375 4.00390625 1.984375 3.25 4.125 C1.40234375 5.390625 1.40234375 5.390625 -0.8125 6.375 C-1.91271484 6.87773437 -1.91271484 6.87773437 -3.03515625 7.390625 C-3.88400391 7.75414062 -3.88400391 7.75414062 -4.75 8.125 C-6.12562854 6.83534824 -7.45766393 5.49810707 -8.75 4.125 C-8.75 3.465 -8.75 2.805 -8.75 2.125 C-5.68753253 0.34090198 -3.52920727 -0.10380021 0 0 Z " fill="#30A5CE" transform="translate(496.75,167.875)"/>
<path d="M0 0 C0 0.99 0 1.98 0 3 C-0.66 3 -1.32 3 -2 3 C-1.67 5.31 -1.34 7.62 -1 10 C-3.97 10 -6.94 10 -10 10 C-9.78515625 7.67578125 -9.78515625 7.67578125 -9 5 C-6.93359375 3.41796875 -6.93359375 3.41796875 -4.4375 2.1875 C-3.61121094 1.76855469 -2.78492188 1.34960938 -1.93359375 0.91796875 C-1.29550781 0.61503906 -0.65742187 0.31210937 0 0 Z " fill="#3DB9BE" transform="translate(689,421)"/>
<path d="M0 0 C0 2.31 0 4.62 0 7 C-0.66 6.67 -1.32 6.34 -2 6 C-4.06603621 6.21090786 -6.08087967 6.57692156 -8.125 6.94140625 C-9.053125 6.97041016 -9.053125 6.97041016 -10 7 C-10.66 6.34 -11.32 5.68 -12 5 C-10.75747321 4.15556432 -9.5056114 3.3248542 -8.25 2.5 C-7.55390625 2.0359375 -6.8578125 1.571875 -6.140625 1.09375 C-4 0 -4 0 0 0 Z " fill="#39BBB9" transform="translate(728,401)"/>
<path d="M0 0 C3.59391114 1.33488128 6.75490696 2.96022723 10 5 C9.67 5.99 9.34 6.98 9 8 C6.03 7.67 3.06 7.34 0 7 C0 4.69 0 2.38 0 0 Z " fill="#31A5D0" transform="translate(448,384)"/>
<path d="M0 0 C-0.33 1.65 -0.66 3.3 -1 5 C-3.31 5 -5.62 5 -8 5 C-7.67 4.01 -7.34 3.02 -7 2 C-7.66 1.67 -8.32 1.34 -9 1 C-6.80036907 -3.39926185 -3.61934676 -1.66294311 0 0 Z " fill="#30ADC5" transform="translate(561,450)"/>
<path d="M0 0 C3.3 0 6.6 0 10 0 C10.33 0.99 10.66 1.98 11 3 C5.04296875 4.7578125 5.04296875 4.7578125 3 5 C2.01 4.34 1.02 3.68 0 3 C0 2.01 0 1.02 0 0 Z " fill="#30A9C8" transform="translate(557,177)"/>
<path d="M0 0 C1.32 0 2.64 0 4 0 C4.66 1.65 5.32 3.3 6 5 C1.25 6 1.25 6 -1 6 C-1.042721 4.33388095 -1.04063832 2.66617115 -1 1 C-0.67 0.67 -0.34 0.34 0 0 Z " fill="#30ADC4" transform="translate(569,457)"/>
<path d="M0 0 C2.5625 0.4375 2.5625 0.4375 4.375 2.9375 C4.766875 3.7625 5.15875 4.5875 5.5625 5.4375 C4.840625 5.251875 4.11875 5.06625 3.375 4.875 C0.43423027 4.41754693 -1.57853058 4.70233643 -4.4375 5.4375 C-4.4375 1.62853105 -3.76864866 0.67642412 0 0 Z " fill="#2EA6CB" transform="translate(492.4375,410.5625)"/>
<path d="M0 0 C0.33 0.66 0.66 1.32 1 2 C0.34 1.67 -0.32 1.34 -1 1 C-0.67 0.67 -0.34 0.34 0 0 Z M-1 2 C-1.25 3.875 -1.25 3.875 -2 6 C-4.14668494 7.38495802 -5.43871412 8 -8 8 C-7.75 6.125 -7.75 6.125 -7 4 C-4.85331506 2.61504198 -3.56128588 2 -1 2 Z " fill="#F2F9F9" transform="translate(616,292)"/>
<path d="M0 0 C3.3 0.33 6.6 0.66 10 1 C9.34 2.32 8.68 3.64 8 5 C6.35 5 4.7 5 3 5 C3 4.01 3 3.02 3 2 C2.01 2 1.02 2 0 2 C0 1.34 0 0.68 0 0 Z " fill="#30AEC1" transform="translate(584,466)"/>
<path d="M0 0 C-0.33 0.99 -0.66 1.98 -1 3 C-1.99 3 -2.98 3 -4 3 C-4.66 4.32 -5.32 5.64 -6 7 C-6.33 6.34 -6.66 5.68 -7 5 C-8.32 5.33 -9.64 5.66 -11 6 C-7.88264342 2.55450062 -4.75616064 0 0 0 Z " fill="#45BBC1" transform="translate(707,224)"/>
<path d="M0 0 C2.475 0.99 2.475 0.99 5 2 C4.67 2.99 4.34 3.98 4 5 C3.34 5 2.68 5 2 5 C1.67 5.99 1.34 6.98 1 8 C-0.65 6.68 -2.3 5.36 -4 4 C-2.68 3.34 -1.36 2.68 0 2 C0 1.34 0 0.68 0 0 Z " fill="#3AAAD0" transform="translate(480,223)"/>
<path d="M0 0 C0.33 0.99 0.66 1.98 1 3 C-1.05233685 5.2477975 -2.00667261 6.0022242 -5 7 C-5.66 6.01 -6.32 5.02 -7 4 C-4.69 2.68 -2.38 1.36 0 0 Z " fill="#46BFBF" transform="translate(734,207)"/>
<path d="M0 0 C2.0625 0.4375 2.0625 0.4375 4 1 C3.01 2.485 3.01 2.485 2 4 C2 5.32 2 6.64 2 8 C1.01 8 0.02 8 -1 8 C-1.04241723 5.66705225 -1.04092937 3.33297433 -1 1 C-0.67 0.67 -0.34 0.34 0 0 Z " fill="#2EA3D0" transform="translate(457,192)"/>
<path d="M0 0 C1.67542976 0.28604898 3.34385343 0.61781233 5 1 C5.33 2.32 5.66 3.64 6 5 C3.08482708 3.92598892 1.22189824 3.22189824 -1 1 C-0.67 0.67 -0.34 0.34 0 0 Z " fill="#EBF6F8" transform="translate(551,442)"/>
<path d="M0 0 C3.96 1.98 3.96 1.98 8 4 C7.67 4.99 7.34 5.98 7 7 C4.13302508 5.71480435 2.02392288 4.42870746 0 2 C0 1.34 0 0.68 0 0 Z " fill="#47B6CB" transform="translate(568,360)"/>
<path d="M0 0 C0.763125 0.20625 1.52625 0.4125 2.3125 0.625 C0 2.6875 0 2.6875 -2.6875 4.625 C-3.6775 4.295 -4.6675 3.965 -5.6875 3.625 C-5.6875 2.965 -5.6875 2.305 -5.6875 1.625 C-2.6875 -0.375 -2.6875 -0.375 0 0 Z " fill="#41B5CA" transform="translate(615.6875,290.375)"/>
<path d="M0 0 C1.98 0 3.96 0 6 0 C6 0.66 6 1.32 6 2 C7.32 2.66 8.64 3.32 10 4 C9.34 4.66 8.68 5.32 8 6 C6.66402348 5.19185349 5.331275 4.37836819 4 3.5625 C3.2575 3.11003906 2.515 2.65757812 1.75 2.19140625 C1.1725 1.79824219 0.595 1.40507812 0 1 C0 0.67 0 0.34 0 0 Z " fill="#3EABD0" transform="translate(502,242)"/>
<path d="M0 0 C-1.125 1.5 -1.125 1.5 -3 3 C-6.1875 3.1875 -6.1875 3.1875 -9 3 C-9 2.01 -9 1.02 -9 0 C-3.375 -1.125 -3.375 -1.125 0 0 Z " fill="#33B5BC" transform="translate(712,169)"/>
<path d="M0 0 C2.875 -0.125 2.875 -0.125 6 0 C6.66 0.66 7.32 1.32 8 2 C1.25 3 1.25 3 -1 3 C-0.67 2.01 -0.34 1.02 0 0 Z " fill="#F0F8F8" transform="translate(678,161)"/>
<path d="M0 0 C1.98 0.99 3.96 1.98 6 3 C6 3.66 6 4.32 6 5 C4.35 5.33 2.7 5.66 1 6 C0.67 4.02 0.34 2.04 0 0 Z " fill="#32B4BD" transform="translate(626,458)"/>
<path d="M0 0 C0.99 0.33 1.98 0.66 3 1 C3.33 2.65 3.66 4.3 4 6 C2.02 5.01 0.04 4.02 -2 3 C-1.34 2.67 -0.68 2.34 0 2 C0 1.34 0 0.68 0 0 Z " fill="#43B8C4" transform="translate(660,237)"/>
<path d="M0 0 C2 0.3125 2 0.3125 4 1 C4.33 1.66 4.66 2.32 5 3 C3.02 3.66 1.04 4.32 -1 5 C-1 1 -1 1 0 0 Z " fill="#43BEBD" transform="translate(748,212)"/>
<path d="M0 0 C3.465 1.98 3.465 1.98 7 4 C5.02 4.99 5.02 4.99 3 6 C3 5.34 3 4.68 3 4 C2.34 4 1.68 4 1 4 C0.67 2.68 0.34 1.36 0 0 Z " fill="#47B8C8" transform="translate(622,202)"/>
<path d="M0 0 C0.99 0 1.98 0 3 0 C3 1.65 3 3.3 3 5 C1.68 5.33 0.36 5.66 -1 6 C-1 5.01 -1 4.02 -1 3 C-0.34 3 0.32 3 1 3 C0.67 2.01 0.34 1.02 0 0 Z " fill="#36BAB7" transform="translate(741,394)"/>
<path d="M0 0 C0.66 0.33 1.32 0.66 2 1 C1.34 2.65 0.68 4.3 0 6 C-0.33 5.34 -0.66 4.68 -1 4 C-3.02463255 3.34786708 -3.02463255 3.34786708 -5 3 C-2.625 1.4375 -2.625 1.4375 0 0 Z " fill="#E5F5F5" transform="translate(672,353)"/>
<path d="M0 0 C0.33 0.99 0.66 1.98 1 3 C-1.70879335 4.35439668 -4.00933268 4.06501451 -7 4 C-2.25 0 -2.25 0 0 0 Z " fill="#44B7C6" transform="translate(642,261)"/>
</svg>
